<?xml version="1.0" encoding="UTF-8"?>
<svg id="Ebene_1" data-name="Ebene 1" xmlns="http://www.w3.org/2000/svg" viewBox="0 0 80 80">
  <path id="car" d="M56,38.63c.69-.26,1.34-.65,1.9-1.13.23-.24.71-.7-.28-1.31s-3.27-.12-3.27-.12c-.35.12-.65.32-.89.6-.43.55-.66-.13-1.17-.9s-1.61-3.26-4.42-3.77c-5.13-.46-10.3-.46-15.43,0-2.82.48-3.95,3-4.46,3.74s-.76,1.45-1.19.9c-.25-.27-.56-.48-.91-.6,0,0-2.42-.4-3.28.12s-.49,1.06-.28,1.31c.53.51,1.17.89,1.86,1.13.69.18,1.66.21,1,1.14-.63.8-1.17,1.66-1.6,2.58-.14.32-.25.66-.33,1v8.95c0,.93.74,1.7,1.67,1.73h3.36c.84-.01,1.52-.71,1.51-1.55,0-.04,0-.08,0-.12v-.8l-5-.83v-.81h30.51v.82l-4.93.82v.8c-.11.81.47,1.55,1.28,1.66.05,0,.1.01.15.01h3.36c.95.01,1.74-.72,1.79-1.67v-8.95c-.07-.34-.17-.67-.29-1-.42-.92-.95-1.79-1.58-2.58-.7-.96.29-.99.93-1.17ZM29.11,36.63c.37-.62.79-1.21,1.27-1.76.72-.91,1.79-1.47,2.95-1.55,4.48-.22,8.97-.22,13.45,0,1.17.08,2.26.64,3,1.55.48.55.9,1.14,1.27,1.76.18.28.09.86-.25.86h-21.38c-.36.03-.42-.55-.27-.83l-.04-.03ZM32.35,42.17l-.92,1.17c-.23.26-.54.44-.88.51,0,0-4,0-5.21-.06-.42,0-.82-.16-1.12-.44-.14-.22-.16-.49-.05-.73.1-.42.28-.82.54-1.17.36-.35.85-.52,1.35-.45,0,0,5.31.21,6,.29s.33.91.33.91l-.04-.03ZM45.35,44.09h-10.63v-2.43h10.7l-.07,2.43ZM55.35,41.45c.3.35.53.76.65,1.2.11.24.09.51-.06.73-.3.28-.7.44-1.12.44-1.23,0-5.2.06-5.2.06-.35-.07-.66-.25-.89-.51l-.92-1.17s-.39-.82.32-.89,6-.29,6-.29c.49-.06.97.11,1.32.46l-.1-.03Z"/>
  <polygon points="2.34 53.62 8.2 53.62 24.1 26 20.75 26 2.34 53.62"/>
  <polygon points="77.66 53.62 71.8 53.62 55.9 26 59.25 26 77.66 53.62"/>
</svg>