<?xml version="1.0" encoding="UTF-8"?>
<svg id="Ebene_1" data-name="Ebene 1" xmlns="http://www.w3.org/2000/svg" viewBox="0 0 80 80">
  <g id="CAR_035x80_distronic-2" data-name="CAR 035x80 distronic-2">
    <path id="MI_304_ICON_Cruise_Control_small" data-name="MI 304 ICON Cruise Control small" d="M65.2,57.98h0l-.24.3-.23.22-.73.73-5.85-5.86,1.25-1.25,4,4c2.23-2.38,3.58-5.45,3.83-8.7h-5.94v-1.8h5.88c-.14-3.3-1.41-6.46-3.6-8.94l-4.21,4.21-1.25-1.25,4.21-4.21c-2.49-2.23-5.67-3.52-9-3.67v5.92h-1.71v-5.9c-3.12.23-6.09,1.46-8.45,3.52l7.3,7.31c2.18-1.14,4.87-.31,6.01,1.87,1.14,2.18.31,4.87-1.87,6.01-2.18,1.14-4.87.31-6.01-1.87-.68-1.3-.68-2.84,0-4.14l-7.27-7.27c-1.91,2.4-3.01,5.35-3.14,8.41h5.49v1.77h-5.46c.25,3.16,1.54,6.15,3.66,8.5l3.76-3.77,1.24,1.25-5.67,5.69-1.24-1.28h0c-6.37-7.02-5.85-17.87,1.16-24.24,7.02-6.37,17.87-5.85,24.24,1.16,6.02,6.62,5.93,16.76-.19,23.29h.03ZM68.31,31.34l8.2-1.56c.23-.06.36-.28.31-.51-.02-.08-.06-.15-.12-.2l-1.36-1.48,3.55-3.27-3.29-3.54-3.54,3.24-1.31-1.43c-.15-.18-.41-.2-.59-.05-.06.05-.1.12-.13.19l-2.24,8c-.08.25.05.51.3.59.07.02.15.03.22.02Z"/>
    <path id="MI_304_ICON_Cruise_Control_small-2" data-name="MI 304 ICON Cruise Control small-2" d="M75.6,20.77l3.29,3.56-3.55,3.27,1.36,1.48c.17.16.17.43.01.59-.05.06-.12.1-.2.12l-8.2,1.56h-.08c-.26,0-.46-.22-.46-.48,0-.04,0-.07.02-.11l2.24-8c.04-.17.2-.3.38-.29.13,0,.25.05.34.15l1.31,1.43,3.54-3.28M52.67,29.07c9.48,0,17.17,7.67,17.17,17.15,0,4.37-1.66,8.57-4.64,11.75h0l-.24.3-.23.22-.73.73-5.85-5.86,1.25-1.25,4,4c2.23-2.38,3.58-5.45,3.83-8.7h-5.94v-1.8h5.88c-.14-3.3-1.41-6.46-3.6-8.94l-4.21,4.21-1.25-1.25,4.21-4.21c-2.49-2.23-5.67-3.52-9-3.67v5.92h-1.71v-5.9c-3.12.23-6.09,1.46-8.45,3.52l7.3,7.31c2.18-1.14,4.87-.31,6.01,1.87,1.14,2.18.31,4.87-1.87,6.01-2.18,1.14-4.87.31-6.01-1.87-.68-1.3-.68-2.84,0-4.14l-7.27-7.27c-1.91,2.4-3.01,5.35-3.14,8.41h5.49v1.77h-5.46c.25,3.16,1.54,6.15,3.66,8.5l3.76-3.77,1.24,1.25-5.67,5.69-1.24-1.28h0c-6.39-6.98-5.91-17.81,1.06-24.2,3.18-2.91,7.34-4.52,11.65-4.5"/>
    <path d="M4.3,41.41h27.56c.56-2.4,1.52-4.68,2.86-6.74h-2.76c-.39-.07-.74-.27-1-.57l-1-1.33s-.44-.91.35-1,6.74-.31,6.74-.31h.2c.3-.31.6-.6.91-.89l.17-.18c-.08-.11-.15-.22-.24-.33-.79-1,.32-1.08,1.09-1.27.76-.31,1.46-.73,2.08-1.27.25-.27.79-.78-.31-1.47s-3.67-.14-3.67-.14c-.39.14-.73.37-1,.68-.48.61-.74-.15-1.31-1s-1.8-3.65-4.95-4.19c-5.75-.51-11.54-.51-17.29,0-3.15.53-4.42,3.32-5,4.19s-.85,1.63-1.33,1c-.27-.31-.61-.54-1-.68,0,0-2.72-.45-3.68.14s-.55,1.19-.31,1.47c.59.55,1.3.98,2.06,1.25.77.19,1.86.23,1.07,1.27-.71.91-1.31,1.89-1.79,2.93-.15.37-.27.76-.37,1.15v10.28c.03,1.04.88,1.87,1.92,1.87h4.12c.94-.01,1.7-.79,1.69-1.73,0-.05,0-.09,0-.14v-1l-5.8-1v-.99ZM26.62,34.62h-10.66v-2.91h10.67v2.91ZM9.03,26.89c.42-.78.9-1.54,1.42-2.26.82-1.02,2.02-1.64,3.32-1.73,1.88-.22,13.24-.28,15.07,0,1.29.1,2.49.73,3.31,1.73.53.72,1,1.47,1.42,2.26.2.3.1.95-.27.95H9.3c-.34,0-.46-.65-.27-.95ZM4.38,33.3c.1-.47.3-.91.58-1.3.38-.38.92-.57,1.46-.51,0,0,5.07.23,5.87.31s.35,1,.35,1l-1,1.31c-.26.3-.61.5-1,.57,0,0-3.58,0-5-.06-.46,0-.91-.17-1.25-.49-.14-.26-.15-.57-.01-.83Z"/>
  </g>
</svg>