<?xml version="1.0" encoding="UTF-8"?>
<svg id="Ebene_1" data-name="Ebene 1" xmlns="http://www.w3.org/2000/svg" viewBox="0 0 80 80">
  <path d="M17.73,53.21l-2.66,1.55c-3.1-8.22-2.25-17.41,2.29-24.93l-3.18-3.17c-5.86,9.03-6.95,20.34-2.92,30.32l-2.94,1.71c-.25.15-.34.47-.2.72.05.08.11.15.2.2l9.12,4.85c.29.14.63.03.78-.26.04-.07.06-.15.06-.22l.29-10.33c0-.29-.23-.53-.52-.54-.11,0-.23.03-.32.1Z"/>
  <path d="M62,44.32c.02-10.73-8.66-19.44-19.38-19.46-4.8,0-9.43,1.76-13,4.96l-9.45-9.39-2.17,2.1,9.47,9.45c-6.15,7.44-5.87,18.27.65,25.39h0l1.41,1.42,6.43-6.44-1.45-1.37-4.26,4.27c-2.4-2.67-3.85-6.05-4.14-9.63h6.18v-2h-6.21c.14-3.48,1.39-6.81,3.56-9.53l8.24,8.23c-1.29,2.47-.33,5.52,2.14,6.81,2.47,1.29,5.52.33,6.81-2.14s.33-5.52-2.14-6.81c-1.47-.77-3.23-.76-4.69.01l-8.28-8.28c2.67-2.33,6.03-3.74,9.57-4v6.69h2v-6.7c3.76.18,7.34,1.64,10.14,4.15l-4.77,4.78,1.41,1.41,4.77-4.77c2.49,2.81,3.93,6.39,4.08,10.14h-6.66v2h6.63c-.29,3.68-1.82,7.16-4.33,9.86l-4.49-4.49-1.41,1.42,6.63,6.64.83-.83.25-.26.33-.33h0c3.4-3.6,5.29-8.35,5.3-13.3Z"/>
  <path d="M67.94,23.17l4-3.7-3.72-4-4,3.7-1.49-1.62c-.17-.2-.48-.23-.68-.05-.07.06-.12.13-.14.21l-2.54,9.1c-.07.28.1.57.39.64.07.02.14.02.21,0l9.29-1.76c.26-.06.41-.32.35-.58-.02-.09-.07-.17-.13-.23l-1.54-1.72Z"/>
</svg>