<?xml version="1.0" encoding="UTF-8"?>
<svg id="Ebene_1" data-name="Ebene 1" xmlns="http://www.w3.org/2000/svg" viewBox="0 0 80 80">
  <g id="Ebene_3" data-name="Ebene 3">
    <polygon points="41.3 37 41.3 23.63 39.74 27.07 36.77 33.61 32.74 42.5 36.77 42.5 37.97 42.5 37.98 56.34 37.98 56.37 37.99 56.34 39.74 52.11 45.95 37 41.3 37"/>
    <path d="M58,28.37h-4v-3h-9v3h-2.2v7.13h5.39l-.85,2.08-5.68,13.79h16.34c.55,0,1-.45,1-1v-21c0-.55-.45-1-1-1Z"/>
    <path d="M36.47,43.99h-6.06l1-2.12,4-8.88,2.09-4.62h-2.5v-3h-9v3h-4c-.55,0-1,.45-1,1v21c0,.55.45,1,1,1h14.48v-7.38Z"/>
  </g>
</svg>