<?xml version="1.0" encoding="UTF-8"?>
<svg id="Ebene_1" data-name="Ebene 1" xmlns="http://www.w3.org/2000/svg" viewBox="0 0 80 80">
  <defs>
    <style>
      .cls-1 {
        fill-rule: evenodd;
      }
    </style>
  </defs>
  <path class="cls-1" d="M67.5,51.93c0-.09.09-.18.13-.27l.05-.11c5.22-12.5,1.42-26.94-9.27-35.25-10.69-8.31-25.63-8.42-36.45-.27-10.82,8.15-14.84,22.53-9.8,35.1.07.19.13.37.2.55.13.31.3.61.44.92.26.57.52,1.15.82,1.71.13.24.29.47.43.75.06.11.13.21.19.31,8.46,14.2,26.83,18.86,41.03,10.41,4.3-2.56,7.89-6.16,10.44-10.47l.24-.42c.19-.34.39-.68.57-1.03.39-.62.69-1.27.99-1.93h0ZM67,40.12c0,4.49-1.1,8.92-3.21,12.88l-.12-.09-19.05-15.06c-.15-.11-.25-.28-.26-.47-.29-2.13-.59-4.27-.88-6.4-.28-1.99-.54-3.97-.82-5.95-.28-1.99-.55-3.93-.82-5.9-.22-1.6-.44-3.19-.65-4.79-.06-.42-.12-.92-.18-1.35,14.49.47,25.99,12.48,26,27.15v-.03h0ZM39,13s0,.04,0,.06c-.11.84-.23,1.76-.34,2.59-.16,1.22-.33,2.44-.5,3.65-.16,1.21-.34,2.47-.51,3.7-.16,1.23-.33,2.45-.5,3.68l-.49,3.59-.56,4.07c-.15,1.05-.29,2.1-.42,3.15-.03.14-.11.26-.23.34l-3.54,2.8-15.5,12.27-.16.11c-4.45-8.28-4.33-18.27.31-26.45,4.64-8.16,13.14-13.29,22.43-13.54,0,0,0,0,0,0ZM39.99,66.99c-8.92,0-17.27-4.37-22.34-11.68-.14-.2-.27-.4-.41-.61-.13-.2-.16-.26-.24-.39l.18-.08,6.78-2.78c5.23-2.13,10.46-4.26,15.69-6.4.18-.07.38-.07.56,0,7.54,3.05,15.09,6.1,22.66,9.13l.13.06c-.05.08-.1.17-.16.25-.17.28-.36.55-.54.82-5.06,7.3-13.4,11.67-22.31,11.69h0s0,0,0,0Z"/>
</svg>