<?xml version="1.0" encoding="UTF-8"?>
<svg id="Ebene_1" data-name="Ebene 1" xmlns="http://www.w3.org/2000/svg" viewBox="0 0 80 80">
  <path d="M69.46,55.52l-20.74-1.5c-.75,0-1.13.29-.66.49l5,3c-4.33.7-7.73,1.55-12.39,1.55-9.21.07-18.96-1.08-24.68-3.54-6.82-2.94-7.13-6.72-1.81-9.69l1.28-.58c-.08-.12-.16-.23-.23-.35-.53-.84-.95-1.75-1.26-2.7-10.71,3.77-12.8,10.18-2.98,14.42,6.89,3,14.17,5.07,29.31,5.07,5.5-.11,10.97-.72,16.36-1.82l3.65,2c.38.24.78.43,1.2.58.46.1.93-.03,1.28-.34l7.67-6.1c.27-.2-.29-.49-1-.49Z"/>
  <path d="M68.8,43.62l-2-.84c-.29.43-.59.86-.92,1.28-.38.51-.79,1-1.22,1.46l1,.5c2,1,3.94,3.31,3.46,5-.07.16-.14.32-.22.48l6,.31c.11-.2.21-.41.28-.63.79-2.61-1.46-5.43-6.38-7.56Z"/>
  <g id="NAV_125x80_snapshot" data-name="NAV 125x80 snapshot">
    <ellipse cx="39.96" cy="35.08" rx="6.64" ry="6.71"/>
    <path d="M54.17,22.83h-5.07v-1c0-2.37-1.91-4.29-4.28-4.31h-9.72c-2.38.02-4.29,1.95-4.28,4.33v1h-5.07c-2.37.01-4.28,1.93-4.29,4.3v16c-.03,2.38,1.87,4.34,4.25,4.37.01,0,.03,0,.04,0h28.42c2.38-.01,4.3-1.95,4.29-4.33h0v-16c.03-2.38-1.88-4.33-4.26-4.36-.01,0-.02,0-.03,0ZM55.89,43.19c0,.95-.76,1.72-1.71,1.73,0,0,0,0-.01,0h-28.42c-.95,0-1.72-.77-1.72-1.72,0,0,0,0,0-.01v-16c0-.95.77-1.72,1.72-1.73h7.64v-3.61c0-.95.76-1.72,1.71-1.73h9.72c.95,0,1.72.78,1.71,1.73h0v3.57h7.64c.95,0,1.72.78,1.72,1.73v16.04Z"/>
    <path d="M27.59,27.67c-.87-.01-1.58.68-1.59,1.55-.01.87.68,1.58,1.55,1.59.87.01,1.58-.68,1.59-1.55,0,0,0-.02,0-.03,0-.86-.68-1.55-1.54-1.56,0,0,0,0-.01,0Z"/>
  </g>
</svg>