<?xml version="1.0" encoding="UTF-8"?>
<svg id="Ebene_1" data-name="Ebene 1" xmlns="http://www.w3.org/2000/svg" viewBox="0 0 80 80">
  <defs>
    <style>
      .cls-1 {
        fill-rule: evenodd;
      }
    </style>
  </defs>
  <path class="cls-1" d="M41.26,30.81c0-2.54-2.06-4.59-4.59-4.59s-4.59,2.06-4.59,4.59,2.06,4.59,4.59,4.59,4.59-2.06,4.59-4.59M31.64,34.31l-.89,3.69,2.65,1.53,2.75-2.62c.35.03.7.03,1.04,0l2.75,2.62,2.65-1.53-.89-3.69c.2-.28.37-.58.52-.9l3.64-1.07v-3.06l-3.64-1.07c-.15-.31-.32-.61-.52-.9l.89-3.69-2.65-1.53-2.74,2.62c-.35-.03-.7-.03-1.04,0l-2.75-2.62-2.66,1.53.9,3.69c-.2.28-.37.58-.52.9l-3.64,1.07v3.06l3.64,1.07c.15.31.32.62.52.9h0ZM22.5,56.84c2.7,7.57,8.83,10.72,16.91,10.72,2.13-4.65,4.76-7.87,11.56-6.94,4.09.56,7.15.37,6.85-3.5-.04-.59-.36-1.28-.16-2,.2-.73,1.2-1.31,1.23-1.89.03-.58-.76-1.1-.47-1.8.28-.7,1.39-.13,1.56-.76.46-1.76-.79-3.84.55-3.84,2.7,0,3.51-1.85,2.64-3.44-.89-1.62-2.53-4.42-2.74-5.04-1.6-4.57,1.18-3.15.38-8.59-1.53-10.4-8.44-17.32-21.45-17.32-17.46,0-22.84,10.1-22.84,19.4s9.07,14.11,5.99,25.01Z"/>
</svg>