<?xml version="1.0" encoding="UTF-8"?>
<svg id="Ebene_1" data-name="Ebene 1" xmlns="http://www.w3.org/2000/svg" viewBox="0 0 80 80">
  <path id="CL_001x80_climate_menu" data-name="CL 001x80 climate menu" d="M54.24,21.99v-4.5h-9v-3.81c0-3.69-2.98-6.68-6.67-6.69,0,0-.01,0-.02,0h-.12c-3.69,0-6.68,2.98-6.69,6.67,0,0,0,.01,0,.02v35.81c-5.96,3.73-7.77,11.58-4.04,17.54,3.73,5.96,11.58,7.77,17.54,4.04,5.96-3.73,7.77-11.58,4.04-17.54-1.02-1.64-2.41-3.02-4.04-4.04v-9.5h9v-4.5h-9v-4.5h9v-4.5h-9v-4.5h9ZM42.24,35.49h-7.5V14.08c-.15-2.07,1.4-3.87,3.48-4.02s3.87,1.4,4.02,3.48c.01.18.01.37,0,.55v21.41Z"/>
</svg>