<?xml version="1.0" encoding="UTF-8"?>
<svg id="Ebene_1" data-name="Ebene 1" xmlns="http://www.w3.org/2000/svg" viewBox="0 0 80 80">
  <path d="M34.24,34.25l-8.37,19.87,19.88-8.36,8.37-19.89-19.88,8.38ZM42.51,42.52l-8.7,3.67,3.67-8.7h0s5.02,5.02,5.02,5.02h0Z"/>
  <path d="M40,11.75c-15.6,0-28.25,12.65-28.25,28.25s12.65,28.25,28.25,28.25,28.25-12.65,28.25-28.25-12.65-28.25-28.25-28.25ZM42.13,63.91v-4.13h-4.24v4.13c-11.55-1-20.75-10.18-21.8-21.71h4.11v-4.24h-4.12c.99-11.61,10.22-20.86,21.81-21.88v4.15h4.24v-4.15c11.59,1.02,20.81,10.28,21.79,21.88h-4.17v4.24h4.15c-1.05,11.53-10.24,20.69-21.78,21.71Z"/>
</svg>