<?xml version="1.0" encoding="UTF-8"?>
<svg id="Ebene_1" data-name="Ebene 1" xmlns="http://www.w3.org/2000/svg" viewBox="0 0 80 80">
  <path d="M39.52,22.39c6.35.32,15.23,2.22,21.26,6.35,4.12,2.86,6.03,6.35,6.03,10.47,0,5.08-1.9,8.25-6.98,11.74h0c-6.35,4.44-14.91,6.03-20.62,6.35-6.98-15.23-2.22-28.87.32-34.9M39.52,17.63c-1.9,0-3.81,1.27-4.44,3.17-2.22,5.71-8.25,21.26,0,38.71.63,1.59,2.54,2.86,4.44,2.86h0c6.35-.32,15.86-2.22,23.16-7.3,6.35-4.44,8.88-8.88,8.88-15.55,0-5.71-2.86-10.79-8.25-14.6-8.57-6.03-20.31-6.98-23.8-7.3h0Z"/>
  <g>
    <path d="M26.52,43.33l-18.09,4.12v4.76l18.72-4.12c-.32-1.59-.32-3.17-.63-4.76Z"/>
    <path d="M28.42,53.17l-19.99,4.12v4.76l21.26-4.44c-.63-1.59-.95-2.86-1.27-4.44Z"/>
    <path d="M8.43,37.3v4.76l18.09-3.81c0-1.59.32-3.49.63-5.08l-18.72,4.12Z"/>
    <path d="M8.43,31.91l19.67-4.44c.63-1.9.95-3.81,1.59-5.08l-21.26,4.76v4.76Z"/>
  </g>
</svg>