<?xml version="1.0" encoding="UTF-8"?>
<svg id="Ebene_1" data-name="Ebene 1" xmlns="http://www.w3.org/2000/svg" viewBox="0 0 80 80">
  <g id="GL_043x80_voicetag" data-name="GL 043x80 voicetag">
    <path id="GL_43_voicetag" data-name="GL 43 voicetag" d="M18.51,46.57c-.01-5.61,2.22-11,6.2-14.95l.71-.71,1.41,1.41-.71.71c-7.48,7.48-7.48,19.61,0,27.09l.71.71-1.41,1.41-.71-.71c-3.98-3.96-6.22-9.34-6.2-14.96ZM29.42,56.87l.7.71,1.42-1.41-.71-.71c-4.9-4.91-4.9-12.86,0-17.77l.71-.71-1.42-1.41-.7.7c-5.69,5.68-5.69,14.9,0,20.59,0,0,0,0,0,0ZM34.83,52.73l1.41-1.37-.7-.71c-2.26-2.26-2.26-5.92,0-8.17h0s.7-.75.7-.75l-1.41-1.42-.71.71c-3.03,3.04-3.03,7.96,0,11l.71.71Z"/>
  </g>
  <path d="M61.49,62.9c0-.7-.18-1.39-.53-2l-.42-.72c-.94-1.59-2.66-2.57-4.51-2.57h-6.08c-.59,0-1.17-.17-1.66-.5-.65-.46-1.02-1.21-1-2v-.49c-.03-1.09-.29-2.16-.76-3.14-.31-.72,0-1.56.71-1.9,1.15-.47,1.71-1.79,1.23-2.95-.27-.65-.82-1.14-1.49-1.32h-.16c-.72-.2-1.14-.94-.94-1.66.02-.06.04-.12.06-.18l.39-.87c.35-.79.02-1.72-.76-2.11l-.75-.37c-.35-.17-1.22-.64-1.8-1-.21-.12-.29-.38-.18-.6.02-.04.05-.08.09-.11l1.49-1.34,6.47-5.74c.61-.51.86-1.34.64-2.1-.49-1.54-.34-3.22.42-4.65l.63-1.19c1.06-2.01,2.85-3.53,5-4.25l-.69-2.08h0c-2.7.9-4.94,2.79-6.28,5.3l-1,1.94c-.71,1.53-.85,3.27-.39,4.9.09.37-.04.76-.33,1l-8.76,7.8c-.56.51-.6,1.38-.09,1.94.11.12.24.22.38.29l2.57,1.29c.64.32.91,1.09.62,1.74l-.95,2.14c-.24.44-.07.99.37,1.23.09.05.19.08.29.1l2.5.61c.17.03.29.2.25.38-.02.1-.08.18-.17.22l-2,1.06c-.52.29-.7.94-.42,1.45.02.04.04.07.07.11l.18.25c.83,1.17,1.29,2.56,1.3,4v.45c0,1.62.89,3.11,2.31,3.89h0c.82.45,1.73.68,2.66.68h5.24c1.57,0,3.02.83,3.81,2.18.17.28.25.6.25.92h2.19v-.03Z"/>
</svg>