<svg id="CAR_092x80_DTR_curve" xmlns="http://www.w3.org/2000/svg" viewBox="0 0 80 80"><path d="M17.73,53.23l-2.66,1.55a28.67,28.67,0,0,1,2.29-24.93l-3.18-3.17A33,33,0,0,0,11.26,57L8.32,58.71a.53.53,0,0,0,0,.92l9.12,4.85a.58.58,0,0,0,.84-.48l.29-10.33A.53.53,0,0,0,17.73,53.23Z"/><path d="M62,44.34a19.42,19.42,0,0,0-32.38-14.5l-9.45-9.39L18,22.55,27.47,32a19.35,19.35,0,0,0,.65,25.39l0,0,1.41,1.42,6.43-6.44L34.51,51l-4.26,4.27a16.4,16.4,0,0,1-4.14-9.63h6.18v-2H26.08a16.29,16.29,0,0,1,3.56-9.53l8.24,8.23A5.05,5.05,0,1,0,40,40.21l-8.28-8.28a16.41,16.41,0,0,1,9.57-4v6.69h2V27.92a16.37,16.37,0,0,1,10.14,4.15l-4.77,4.78,1.41,1.41,4.77-4.77a16.29,16.29,0,0,1,4.08,10.14H52.26v2h6.63a16.36,16.36,0,0,1-4.33,9.86L50.07,51l-1.41,1.42,6.63,6.64.83-.83.25-.26.33-.33h0A19.4,19.4,0,0,0,62,44.34Z"/><path d="M67.94,23.19l4-3.7-3.72-4-4,3.7-1.49-1.62a.48.48,0,0,0-.82.16l-2.54,9.1a.53.53,0,0,0,.6.65l9.29-1.76a.48.48,0,0,0,.22-.81Z"/></svg>