<svg id="CAR_035x80_distronic" xmlns="http://www.w3.org/2000/svg" viewBox="0 0 80 80"><g id="CAR_035x80_distronic-2" data-name="CAR_035x80_distronic"><path id="MI_304_ICON_Cruise_Control_small" d="M65.24,57.2h0L65,57.5l-.23.22-.73.73-5.85-5.86,1.25-1.25,4,4a14.39,14.39,0,0,0,3.83-8.7H61.33V44.84h5.88a14.45,14.45,0,0,0-3.6-8.94L59.4,40.11l-1.25-1.25,4.21-4.21a14.45,14.45,0,0,0-9-3.67V36.9H51.65V31a14.49,14.49,0,0,0-8.45,3.52l7.3,7.31a4.45,4.45,0,1,1-1.87,1.87l-7.27-7.27a14.52,14.52,0,0,0-3.14,8.41h5.49v1.77H38.25a14.39,14.39,0,0,0,3.66,8.5l3.76-3.77,1.24,1.25-5.67,5.69L40,57l0,0a17.16,17.16,0,1,1,25.21.21Zm3.11-26.64L76.55,29a.42.42,0,0,0,.19-.71l-1.36-1.48,3.55-3.27L75.64,20,72.1,23.24l-1.31-1.43a.42.42,0,0,0-.72.14l-2.24,8A.47.47,0,0,0,68.35,30.56Z"/><path id="MI_304_ICON_Cruise_Control_small-2" data-name="MI_304_ICON_Cruise_Control_small" d="M75.64,20l3.29,3.56-3.55,3.27,1.36,1.48a.42.42,0,0,1-.19.71l-8.2,1.56h-.08a.47.47,0,0,1-.44-.59l2.24-8a.38.38,0,0,1,.38-.29.46.46,0,0,1,.34.15l1.31,1.43L75.64,20M52.71,28.3A17.16,17.16,0,0,1,65.24,57.2h0L65,57.5l-.23.22-.73.73-5.85-5.86,1.25-1.25,4,4a14.39,14.39,0,0,0,3.83-8.7H61.33V44.84h5.88a14.45,14.45,0,0,0-3.6-8.94L59.4,40.11l-1.25-1.25,4.21-4.21a14.45,14.45,0,0,0-9-3.67V36.9H51.65V31a14.49,14.49,0,0,0-8.45,3.52l7.3,7.31a4.45,4.45,0,1,1-1.87,1.87l-7.27-7.27a14.52,14.52,0,0,0-3.14,8.41h5.49v1.77H38.25a14.39,14.39,0,0,0,3.66,8.5l3.76-3.77,1.24,1.25-5.67,5.69L40,57l0,0A17.13,17.13,0,0,1,52.71,28.3"/><path d="M4.34,40.64H31.9a21.26,21.26,0,0,1,2.86-6.74H32a1.77,1.77,0,0,1-1-.57L30,32s-.44-.91.35-1,6.74-.31,6.74-.31h.2c.3-.31.6-.6.91-.89l.17-.18c-.08-.11-.15-.22-.24-.33-.79-1,.32-1.08,1.09-1.27a7.41,7.41,0,0,0,2.08-1.27c.25-.27.79-.78-.31-1.47s-3.67-.14-3.67-.14a2.36,2.36,0,0,0-1,.68c-.48.61-.74-.15-1.31-1s-1.8-3.65-4.95-4.19a97.88,97.88,0,0,0-17.29,0c-3.15.53-4.42,3.32-5,4.19s-.85,1.63-1.33,1a2.36,2.36,0,0,0-1-.68s-2.72-.45-3.68.14-.55,1.19-.31,1.47A5.93,5.93,0,0,0,3.51,28c.77.19,1.86.23,1.07,1.27A15.05,15.05,0,0,0,2.79,32.2a9.07,9.07,0,0,0-.37,1.15s0,7.09,0,10.28A1.92,1.92,0,0,0,4.34,45.5H8.46a1.71,1.71,0,0,0,1.68-1.87v-1l-5.8-1Zm22.32-6.79H16V30.94H26.67ZM9.07,26.11a19.76,19.76,0,0,1,1.42-2.26,4.66,4.66,0,0,1,3.32-1.73c1.88-.22,13.24-.28,15.07,0a4.76,4.76,0,0,1,3.31,1.73,18.46,18.46,0,0,1,1.42,2.26c.2.3.1.95-.27.95h-24C9,27.06,8.88,26.41,9.07,26.11ZM4.42,32.53A3.55,3.55,0,0,1,5,31.23a1.77,1.77,0,0,1,1.46-.51s5.07.23,5.87.31.35,1,.35,1l-1,1.31a1.76,1.76,0,0,1-1,.57s-3.58,0-5-.06a1.82,1.82,0,0,1-1.25-.49A.87.87,0,0,1,4.42,32.53Z"/></g></svg>