<svg id="CAR_024x80_lane_assist" xmlns="http://www.w3.org/2000/svg" viewBox="0 0 80 80"><path id="car" d="M56,37.63A6.43,6.43,0,0,0,57.9,36.5c.23-.24.71-.7-.28-1.31s-3.27-.12-3.27-.12a2,2,0,0,0-.89.6c-.43.55-.66-.13-1.17-.9S50.68,31.51,47.87,31a87.38,87.38,0,0,0-15.43,0c-2.82.48-3.95,3-4.46,3.74s-.76,1.45-1.19.9a2.16,2.16,0,0,0-.91-.6s-2.42-.4-3.28.12-.49,1.06-.28,1.31a5.1,5.1,0,0,0,1.86,1.13c.69.18,1.66.21,1,1.14a13.33,13.33,0,0,0-1.6,2.58,6.88,6.88,0,0,0-.33,1s0,6.11,0,8.95A1.72,1.72,0,0,0,24.92,53h3.36a1.53,1.53,0,0,0,1.5-1.67v-.8l-5-.83v-.81H55.29v.82l-4.93.82v.8A1.48,1.48,0,0,0,51.79,53h3.36a1.77,1.77,0,0,0,1.79-1.67c0-2.79,0-8.95,0-8.95a6.79,6.79,0,0,0-.29-1,12.59,12.59,0,0,0-1.58-2.58C54.37,37.84,55.36,37.81,56,37.63Zm-26.89-2a12.08,12.08,0,0,1,1.27-1.76,4.12,4.12,0,0,1,2.95-1.55,134.09,134.09,0,0,1,13.45,0,4.24,4.24,0,0,1,3,1.55,12.08,12.08,0,0,1,1.27,1.76c.18.28.09.86-.25.86l-10.69,0h0l-10.69,0C29.06,36.52,29,35.94,29.15,35.66Zm3.24,5.54-.92,1.17a1.57,1.57,0,0,1-.88.51s-4,0-5.21-.06a1.64,1.64,0,0,1-1.12-.44.75.75,0,0,1-.05-.73,3.23,3.23,0,0,1,.54-1.17A1.61,1.61,0,0,1,26.06,40s5.31.21,6,.29S32.39,41.2,32.39,41.2Zm13,1.92H34.72V40.66h10.7Zm10-2.64A3.1,3.1,0,0,1,56,41.65a.75.75,0,0,1-.06.73,1.64,1.64,0,0,1-1.12.44c-1.23,0-5.2.06-5.2.06a1.58,1.58,0,0,1-.89-.51l-.92-1.17s-.39-.82.32-.89,6-.29,6-.29A1.61,1.61,0,0,1,55.45,40.48Z"/><polygon points="2.34 52.62 8.2 52.62 24.1 25 20.75 25 2.34 52.62"/><polygon points="77.66 52.62 71.8 52.62 55.9 25 59.25 25 77.66 52.62"/></svg>