<?xml version="1.0" encoding="UTF-8"?>
<svg width="80px" height="80px" viewBox="0 0 80 80" version="1.1" xmlns="http://www.w3.org/2000/svg" xmlns:xlink="http://www.w3.org/1999/xlink">
    <title>Icons/Navigation/NAV_316x80_parking_assist</title>
    <defs>
        <polygon id="path-1" points="0 0 48 0 48 48.0013252 0 48.0013252"></polygon>
    </defs>
    <g id="Icons/Navigation/NAV_316x80_parking_assist" stroke="none" stroke-width="1" fill="none" fill-rule="evenodd">
        <g id="Group" transform="translate(16.000000, 15.999337)">
            <mask id="mask-2" fill="white">
                <use xlink:href="#path-1"></use>
            </mask>
            <g id="Clip-4"></g>
            <g id="P" mask="url(#mask-2)" fill="#000000" fill-rule="nonzero">
                <g transform="translate(15.360000, 9.600663)" id="Shape">
                    <path d="M0,0 L5.8989011,0 C9.7170989,0 12.455619,0.283428571 14.1144615,0.850285714 C15.9306081,1.46074725 17.3105934,2.60899634 18.2544176,4.29503297 C19.0409377,5.71944322 19.4341978,7.35460806 19.4341978,9.20052747 C19.4341978,11.8603956 18.6405275,13.9897436 17.0531868,15.5885714 C15.6517509,16.9984469 13.6210989,17.8123956 10.9612308,18.0304176 C9.78860073,18.1176264 8.29421245,18.1612308 6.47806593,18.1612308 L4.52606593,18.1612308 L4.52606593,29.76 L0,29.76 L0,0 Z M4.52606593,14.1932308 L6.45661538,14.1932308 C8.95917949,14.1932308 10.7181245,14.0478828 11.7334505,13.7571868 C12.7916777,13.4374212 13.585348,12.8051575 14.1144615,11.8603956 C14.5434725,11.1045861 14.757978,10.210696 14.757978,9.17872527 C14.757978,6.9112967 13.9428571,5.40694505 12.3126154,4.66567033 C11.2400879,4.18602198 9.27378755,3.9461978 6.41371429,3.9461978 L4.52606593,3.9461978 L4.52606593,14.1932308 Z"></path>
                </g>
            </g>
            <path d="M4.8,2.88066262 C3.48559496,2.88066262 2.88,3.48505281 2.88,4.80066262 L2.88,43.2006626 C2.88,44.5150677 3.48559496,45.1206626 4.8,45.1206626 L43.2,45.1206626 C44.514405,45.1206626 45.12,44.5150677 45.12,43.2006626 L45.12,4.80066262 C45.12,3.48505281 44.514405,2.88066262 43.2,2.88066262 L4.8,2.88066262 Z M4.76727842,48.0013252 C2.13726356,48.0013252 0,45.8628569 0,43.2340468 L0,4.76812176 C0,2.13931167 2.13726356,-0.000361431268 4.76727842,-0.000361431268 L43.2319987,-0.000361431268 C45.8620136,-0.000361431268 48.0004819,2.13931167 48.0004819,4.76812176 L48.0004819,43.2340468 C48.0004819,45.8628569 45.8620136,48.0013252 43.2319987,48.0013252 L4.76727842,48.0013252 Z" id="Fill-3" fill="#000000" mask="url(#mask-2)"></path>
        </g>
    </g>
</svg>