<svg xmlns="http://www.w3.org/2000/svg" viewBox="0 0 24 24">
  <path d="M14.188,9.812l-1.3,3.081-3.08,1.3,1.3-3.079,3.08-1.3M17,7,9.962,9.965,7,17l7.036-2.961L17,7Z"/>
  <polyline points="9.962 9.965 17 7 14.036 14.039"/>
  <path d="M12,3.5A8.5,8.5,0,1,1,3.5,12,8.51,8.51,0,0,1,12,3.5M12,2A10,10,0,1,0,22,12,10,10,0,0,0,12,2Z"/>
  <rect x="11.004" y="3.252" width="2.002" height="1.5" transform="translate(16.007 -8.002) rotate(90)"/>
  <rect x="11.005" y="19.253" width="1.998" height="1.5" transform="translate(32.007 7.998) rotate(90)"/>
  <rect x="2.995" y="11.281" width="1.997" height="1.5"/>
  <rect x="18.993" y="11.281" width="2.003" height="1.5"/>
</svg>
