<svg id="GL_141x80_push_to_talk" xmlns="http://www.w3.org/2000/svg" viewBox="0 0 80 80"><g id="GL_043x80_voicetag"><path id="GL_43_voicetag" d="M18.27,44.83a21,21,0,0,1,6.2-14.95l.71-.71,1.41,1.41-.71.71a19.16,19.16,0,0,0,0,27.09l.71.71L25.18,60.5l-.71-.71A21,21,0,0,1,18.27,44.83Zm10.91,10.3.7.71,1.42-1.41-.71-.71a12.58,12.58,0,0,1,0-17.77l.71-.71-1.42-1.41-.7.7a14.56,14.56,0,0,0,0,20.6ZM34.59,51,36,49.63l-.7-.71a5.78,5.78,0,0,1,0-8.18L36,40l-1.41-1.42-.71.71a7.8,7.8,0,0,0,0,11Z"/></g><path d="M61.25,61.17a3.91,3.91,0,0,0-.53-2l-.42-.72a5.23,5.23,0,0,0-4.51-2.57H49.71a3,3,0,0,1-1.66-.5,2.36,2.36,0,0,1-1-2v-.49a7.8,7.8,0,0,0-.76-3.14A1.47,1.47,0,0,1,47,47.85a2.26,2.26,0,0,0-.26-4.27l-.16,0a1.35,1.35,0,0,1-.88-1.84l.39-.87a1.62,1.62,0,0,0-.76-2.11l-.75-.37c-.35-.17-1.22-.64-1.8-1a.44.44,0,0,1-.09-.71l1.49-1.34,6.47-5.74a2,2,0,0,0,.64-2.1,6,6,0,0,1,.42-4.65l.63-1.19a8.81,8.81,0,0,1,5-4.25l-.69-2.08h0a11.08,11.08,0,0,0-6.28,5.3l-1,1.94a7.05,7.05,0,0,0-.39,4.9,1,1,0,0,1-.33,1l-8.76,7.8a1.37,1.37,0,0,0,.29,2.23l2.57,1.29a1.34,1.34,0,0,1,.62,1.74l-.95,2.14A.91.91,0,0,0,43.08,45l2.5.61a.32.32,0,0,1,.08.6l-2,1.06a1.07,1.07,0,0,0-.35,1.56l.18.25a7,7,0,0,1,1.3,4v.45a4.44,4.44,0,0,0,2.31,3.89h0a5.51,5.51,0,0,0,2.66.68H55a4.41,4.41,0,0,1,3.81,2.18,1.77,1.77,0,0,1,.25.92l2.19,0Z"/></svg>