<svg id="NAV_270x80_switch_camera" xmlns="http://www.w3.org/2000/svg" viewBox="0 0 80 80"><path d="M70,57l-20.74-1.5c-.75,0-1.13.29-.66.49l5,3c-4.33.7-7.73,1.55-12.39,1.55C32,60.61,22.25,59.46,16.53,57c-6.82-2.94-7.13-6.72-1.81-9.69L16,46.73c-.08-.12-.16-.23-.23-.35a11.88,11.88,0,0,1-1.26-2.7C3.8,47.45,1.71,53.86,11.53,58.1c6.89,3,14.17,5.07,29.31,5.07A90.68,90.68,0,0,0,57.2,61.35l3.65,2a6.13,6.13,0,0,0,1.2.58,1.44,1.44,0,0,0,1.28-.34L71,57.49C71.27,57.29,70.71,57,70,57Z"/><path d="M69.34,45.1l-2-.84c-.29.43-.59.86-.92,1.28A17.49,17.49,0,0,1,65.2,47l1,.5c2,1,3.94,3.31,3.46,5a5.11,5.11,0,0,1-.22.48l6,.31a3.47,3.47,0,0,0,.28-.63C76.51,50.05,74.26,47.23,69.34,45.1Z"/><g id="NAV_125x80_snapshot"><ellipse cx="40.5" cy="36.56" rx="6.64" ry="6.71"/><path d="M54.71,24.31H49.64v-1A4.31,4.31,0,0,0,45.36,19H35.64a4.31,4.31,0,0,0-4.28,4.33v1H26.29A4.31,4.31,0,0,0,22,28.63v16A4.31,4.31,0,0,0,26.29,49H54.71A4.31,4.31,0,0,0,59,44.67v-16A4.31,4.31,0,0,0,54.71,24.31Zm1.72,20.36a1.72,1.72,0,0,1-1.72,1.73H26.29a1.72,1.72,0,0,1-1.72-1.73v-16a1.73,1.73,0,0,1,1.72-1.73h7.64V23.33a1.72,1.72,0,0,1,1.71-1.73h9.72a1.72,1.72,0,0,1,1.71,1.73V26.9h7.64a1.73,1.73,0,0,1,1.72,1.73Z"/><path d="M28.13,29.15a1.57,1.57,0,1,0,1.55,1.56A1.55,1.55,0,0,0,28.13,29.15Z"/></g></svg>