<?xml version="1.0" encoding="utf-8"?><!-- Generator: Adobe Illustrator 24.3.0, SVG Export Plug-In . SVG Version: 6.00 Build 0)  --><svg version="1.1" id="NAV_x5F_283x80_x5F_camera_x5F_inside_x5F_mode"	 xmlns="http://www.w3.org/2000/svg" xmlns:xlink="http://www.w3.org/1999/xlink" x="0px" y="0px" viewBox="0 0 80 80"	 style="enable-background:new 0 0 80 80;" xml:space="preserve"><desc>{"id":"NAV_283","title":"NAV_283x80_camera_inside_modeNAV_283x80_camera_inside_mode","keywords":["cam","camera","photo","mountain","image"],"usage":"Navigation","relations":"NAV_270, NAV_274","description":"a camera with mountains","notes":"requested from China"}</desc><g>	<g>		<path d="M56.584,27.391h-5.917v-1.133c0-2.757-2.243-5-5-5H34.333c-2.757,0-5,2.243-5,5v1.133h-5.917c-2.757,0-5,2.243-5,5v14.585			c0.879-0.737,1.903-1.246,3-1.517V32.391c0-1.103,0.897-2,2-2h8.917v-4.133c0-1.103,0.897-2,2-2h11.333c1.103,0,2,0.897,2,2v4.133			h8.917c1.104,0,2.001,0.897,2.001,2v18.533c0,1.103-0.897,2-2.001,2H30.749c-0.009,0.717-0.11,1.412-0.305,2.068			c0.873,0.225,1.915,0.538,2.86,0.932h23.28c2.758,0,5.001-2.243,5.001-5V32.391C61.585,29.635,59.342,27.391,56.584,27.391z"/>	</g>	<path style="fill:#010101;" d="M23.203,59.746c-1.913-0.001-3.629-0.868-4.791-2.229c0,0-2.097,0.431-4.21,1.213		c-0.634,0.235-0.707,0.866-0.615,1.178l1.808,5.978h7.803h0.008h7.818l1.808-5.993c0.092-0.312,0.018-0.903-0.63-1.178		c-1.784-0.756-4.21-1.198-4.21-1.198C26.832,58.878,25.116,59.745,23.203,59.746z"/>	<path style="fill:#010101;" d="M23.222,48.232c-0.004,0-0.009,0-0.013,0c-0.638,0.002-1.244,0.14-1.794,0.382		c-1.529,0.674-2.602,2.179-2.702,3.949c-0.005,0.092-0.027,0.18-0.026,0.273c0.007,2.531,2.036,4.578,4.535,4.578		c0.004,0,0.009,0,0.013,0c1.315-0.004,2.487-0.582,3.313-1.49c0.723-0.794,1.173-1.841,1.198-3		c0.001-0.039,0.011-0.075,0.011-0.114C27.75,50.279,25.721,48.232,23.222,48.232z"/></g><g>	<circle cx="40" cy="41.546" r="7.75"/></g><g>	<path d="M25.569,32.985c-1,0-1.81,0.81-1.81,1.81c0,1,0.81,1.81,1.81,1.81c1,0,1.81-0.81,1.81-1.81		C27.379,33.796,26.568,32.985,25.569,32.985z"/></g></svg>