<?xml version="1.0" encoding="utf-8"?>
<!-- Generator: Adobe Illustrator 25.3.0, SVG Export Plug-In . SVG Version: 6.00 Build 0)  -->
<svg version="1.1" id="Ebene_1" xmlns="http://www.w3.org/2000/svg" xmlns:xlink="http://www.w3.org/1999/xlink" x="0px" y="0px"
	 viewBox="0 0 24 24" style="enable-background:new 0 0 24 24;" xml:space="preserve">
<path d="M11.8,6c2,0.1,4.8,0.7,6.7,2c1.3,0.9,1.9,2,1.9,3.3c0,1.6-0.6,2.6-2.2,3.7v0c-2,1.4-4.7,1.9-6.5,2C9.5,12.2,11,7.9,11.8,6
	 M11.8,4.5c-0.6,0-1.2,0.4-1.4,1c-0.7,1.8-2.6,6.7,0,12.2c0.2,0.5,0.8,0.9,1.4,0.9c0,0,0,0,0,0c2-0.1,5-0.7,7.3-2.3
	c2-1.4,2.8-2.8,2.8-4.9c0-1.8-0.9-3.4-2.6-4.6C16.6,4.9,12.9,4.6,11.8,4.5C11.8,4.5,11.8,4.5,11.8,4.5L11.8,4.5z"/>
<g>
	<path d="M7.7,12.6L2,13.9v1.5l5.9-1.3C7.8,13.6,7.8,13.1,7.7,12.6z"/>
	<path d="M8.3,15.7L2,17v1.5l6.7-1.4C8.5,16.6,8.4,16.2,8.3,15.7z"/>
	<path d="M2,10.7v1.5L7.7,11c0-0.5,0.1-1.1,0.2-1.6L2,10.7z"/>
	<path d="M2,9l6.2-1.4c0.2-0.6,0.3-1.2,0.5-1.6L2,7.5V9z"/>
</g>
</svg>
