<?xml version="1.0" encoding="UTF-8"?><svg id="a" xmlns="http://www.w3.org/2000/svg" viewBox="0 0 24 24"><defs><style>.b{fill-rule:evenodd;}</style></defs><path class="b" d="m12.411,9c0-.829-.671-1.5-1.499-1.5s-1.5.672-1.5,1.5.671,1.499,1.5,1.499,1.499-.671,1.499-1.499m-3.144,1.143l-.292,1.205.866.5.898-.855c.113.01.227.01.339,0l.898.855.866-.5-.292-1.206c.065-.092.122-.19.17-.293l1.19-.35v-1l-1.19-.35c-.048-.102-.105-.2-.17-.293l.292-1.205-.866-.5-.896.854c-.113-.01-.227-.01-.34.001l-.897-.856-.867.501.293,1.205c-.065.093-.122.19-.17.293l-1.189.35v1l1.189.35c.048.102.104.201.169.294Zm-2.983,7.356c.883,2.473,2.884,3.5,5.521,3.5.697-1.518,1.555-2.57,3.775-2.267,1.337.183,2.333.122,2.237-1.142-.014-.193-.118-.418-.053-.654.065-.238.392-.429.402-.618.01-.188-.248-.36-.154-.587.093-.227.454-.043.508-.248.149-.575-.259-1.255.178-1.255.883,0,1.147-.603.861-1.122-.292-.53-.825-1.443-.895-1.646-.523-1.493.386-1.027.123-2.806-.501-3.396-2.755-5.654-7.003-5.654-5.7,0-7.457,3.298-7.457,6.334s2.962,4.606,1.957,8.165Z"/></svg>