<?xml version="1.0" encoding="UTF-8"?>
<svg xmlns="http://www.w3.org/2000/svg" viewBox="0 0 120 120"><path fill="#000" fill-rule="evenodd" d="M87.5 71.937c0-.09.09-.18.127-.269l.052-.111c5.222-12.496 1.421-26.94-9.274-35.248C67.71 28 52.773 27.888 41.954 36.035c-10.82 8.146-14.837 22.531-9.804 35.104.067.186.127.373.201.552.135.313.299.611.44.924.261.574.522 1.148.82 1.708.135.238.291.47.426.745.06.105.126.209.193.313a29.932 29.932 0 0 0 51.473-.06l.239-.424c.194-.343.388-.679.567-1.03.387-.618.686-1.267.991-1.93zM87 60.12A27.3 27.3 0 0 1 83.786 73l-.119-.09-19.052-15.055a.626.626 0 0 1-.26-.467c-.29-2.13-.588-4.268-.885-6.398-.275-1.987-.543-3.967-.818-5.954-.276-1.987-.551-3.93-.819-5.901a791.911 791.911 0 0 1-.654-4.788c-.06-.421-.12-.925-.179-1.347 14.488.467 25.995 12.484 26 27.15v-.03zM58.998 33a.19.19 0 0 1 0 .06c-.112.842-.23 1.759-.342 2.593-.163 1.218-.334 2.435-.497 3.645-.163 1.21-.342 2.466-.505 3.698-.163 1.233-.334 2.45-.504 3.676l-.49 3.592-.557 4.066c-.148 1.053-.29 2.097-.423 3.15a.519.519 0 0 1-.23.338l-3.54 2.796-15.498 12.273-.156.113a27.356 27.356 0 0 1 .309-26.447c4.64-8.16 13.137-13.291 22.433-13.545V33zm.99 53.993c-8.923-.009-17.273-4.374-22.34-11.678-.143-.203-.271-.405-.407-.608-.135-.202-.158-.262-.241-.39l.18-.082 6.784-2.78c5.231-2.13 10.462-4.263 15.693-6.402.18-.07.379-.07.558 0 7.537 3.053 15.09 6.097 22.657 9.13l.128.06c-.053.082-.098.165-.158.247a19.2 19.2 0 0 1-.543.817C77.242 82.609 68.904 86.978 59.989 87v-.007z" style="fill: #000000;"/></svg>
