<?xml version="1.0" encoding="UTF-8"?>
<svg id="Logo_dark_vertikal" xmlns="http://www.w3.org/2000/svg" viewBox="0 0 500 500">
  <defs>
    <style>
      .cls-1 {
        fill: #806cad;
      }

      .cls-2 {
        fill: #f4bf3a;
      }

      .cls-3 {
        fill: #fff;
      }

      .cls-4 {
        fill: none;
        stroke: #fff;
        stroke-linejoin: round;
        stroke-width: 6px;
      }

      .cls-5 {
        fill: #46266c;
      }

      .cls-6 {
        fill: #f2ec8f;
      }

      .cls-7 {
        fill: #ce8835;
      }

      .cls-8 {
        fill: #ae774a;
      }
    </style>
  </defs>
  <g id="Text">
    <g>
      <path class="cls-3" d="M176.32,460.83h4.09v4.09h-20.47v-36.84h8.19v32.75h8.19Z"/>
      <path class="cls-3" d="M196.79,464.93h-8.19v-4.09h-4.09v-20.47h4.09v-4.09h12.28v4.09h4.09v12.28h-12.28v8.19h4.09v-4.09h8.19v4.09h-4.09v4.09h-4.09ZM196.79,448.56v-8.19h-4.09v8.19h4.09Z"/>
      <path class="cls-3" d="M217.25,464.93v-4.09h-4.09v-4.09h-4.09v-20.47h8.19v20.47h4.09v-20.47h8.19v20.47h-4.09v4.09h-4.09v4.09h-4.09Z"/>
      <path class="cls-3" d="M245.91,464.93h-8.19v-4.09h-4.09v-20.47h4.09v-4.09h12.28v4.09h4.09v12.28h-12.28v8.19h4.09v-4.09h8.19v4.09h-4.09v4.09h-4.09ZM245.91,448.56v-8.19h-4.09v8.19h4.09Z"/>
      <path class="cls-3" d="M262.28,464.93h-4.09v-36.84h8.19v36.84h-4.09Z"/>
      <path class="cls-3" d="M295.02,464.93h-8.19v-4.09h-4.09v-32.75h8.19v32.75h4.09v-32.75h8.19v32.75h-4.09v4.09h-4.09Z"/>
      <path class="cls-3" d="M311.4,473.11h-4.09v-36.84h16.37v4.09h4.09v20.47h-4.09v4.09h-8.19v8.19h-4.09ZM319.58,460.83v-20.47h-4.09v20.47h4.09Z"/>
      <path class="cls-3" d="M335.96,452.65h-4.09v-24.56h8.19v24.56h-4.09ZM335.96,464.93h-4.09v-8.19h8.19v8.19h-4.09Z"/>
    </g>
    <g>
      <path class="cls-3" d="M113.5,372.57v3.82c-6.08-.71-8.63-.85-13.01-.85s-8.06.28-14.99.85v-3.82c7.64-.85,9.05-1.41,6.08-11.6l-3.82-13.15h-26.59l-3.54,13.15c-2.69,10.04-1.56,10.75,6.22,11.6v3.82c-3.82-.42-8.63-.85-12.02-.85s-6.65.28-10.33.85v-3.82c6.65-.85,8.35-2.26,10.89-11.6l22.35-80.77h3.54l24.47,80.91c3.11,10.18,4.39,10.61,10.75,11.46ZM86.34,343.01l-8.49-29.56c-1.27-4.95-2.4-9.19-3.11-13.58h-.57l-11.74,43.14h23.9Z"/>
      <path class="cls-3" d="M119.3,285.16v-3.82c8.63.71,9.9.85,14.57.85s5.94-.14,14.57-.85v3.82c-7.78.85-9.19,1.7-9.19,12.16v63.09c0,10.47,1.41,11.32,9.19,12.17v3.82c-8.63-.71-9.9-.85-14.57-.85s-5.94.14-14.57.85v-3.82c7.78-.85,9.19-1.7,9.19-12.17v-63.09c0-10.47-1.41-11.32-9.19-12.16Z"/>
      <path class="cls-3" d="M247.88,349.8c0,16.13-12.59,26.31-28.15,26.31h-31.12v-3.82c7.78-.42,9.19-1.56,9.19-11.32v-64.22c0-9.76-1.41-10.89-9.19-11.32v-3.82h28.15c15.84,0,26.88,8.63,26.88,22.07,0,10.61-6.65,18.39-15.98,22.07v.42c11.88,2.12,20.23,10.61,20.23,23.62ZM208.55,286.57v38.19h6.51c11.88,0,17.11-7.21,17.11-19.1s-5.52-19.1-18.25-19.1h-5.37ZM236.42,350.51c0-12.73-7.21-20.79-18.25-20.79h-9.62v35.79c0,3.96.85,5.66,7.21,5.66h3.68c11.74,0,16.97-7.78,16.97-20.65Z"/>
      <path class="cls-3" d="M313.79,306.51v3.68c-5.66,1.13-6.08,1.98-8.35,8.49l-24.75,69.31c-4.24,11.32-7.78,14.29-14.43,14.29-7.21,0-11.88-4.24-11.88-9.48,0-3.68,1.84-6.22,5.52-6.22,3.11,0,5.52,1.7,5.8,6.51.14,3.25,1.98,4.1,3.54,4.1,1.84,0,4.39-1.56,7.07-9.19l6.65-18.81-18.25-50.5c-2.69-7.64-5.94-8.2-9.19-8.49v-3.68c5.23.71,8.91.85,11.88.85,2.69,0,6.51,0,13.01-.85v3.68c-6.65.71-7.5,1.84-5.23,8.2l8.49,24.33c2.26,6.37,3.11,10.04,3.68,12.73h.42l12.87-36.78c2.26-6.51.71-7.36-5.8-8.49v-3.68c4.67.71,7.07.85,10.18.85,2.41,0,5.09-.14,8.77-.85Z"/>
      <path class="cls-3" d="M354.25,368.89v5.23c-3.82,2.26-8.06,3.39-12.73,3.39-8.91,0-13.86-5.09-13.86-16.27v-49.23h-10.04v-4.38c10.75-1.56,14.71-7.64,15.98-20.65h3.96v19.8h15.98v5.23h-15.98v46.54c0,10.18,3.11,12.73,8.49,12.73,3.11,0,5.66-.85,8.2-2.4Z"/>
      <path class="cls-3" d="M406.73,340.32h-33.66c.14,20.23,5.8,30.98,15.98,30.98,6.08,0,11.17-3.25,14.85-10.33l2.83,1.7c-2.83,7.64-10.18,14.85-19.8,14.85-14.29,0-24.75-11.46-24.75-36.07,0-23.2,10.18-36.07,23.62-36.07,11.74,0,21.08,9.9,21.08,31.4,0,1.13,0,1.84-.14,3.54ZM373.06,335.94h23.48c-.42-19.1-4.1-26.17-10.75-26.17-7.78,0-12.16,9.76-12.73,26.17Z"/>
      <path class="cls-3" d="M455.25,310.62v15.28h-3.11c-1.41-9.62-5.8-16.13-13.86-16.13-6.79,0-10.75,4.1-10.75,11.46,0,5.94,3.4,9.34,9.62,12.73l8.91,4.81c7.64,4.1,12.45,9.9,12.45,18.95,0,10.61-8.77,19.8-20.65,19.8-6.51,0-13.44-2.12-18.39-5.52v-16.69h3.11c2.12,11.46,6.93,17.82,15.56,17.82,7.78,0,12.31-4.67,12.31-11.74s-4.24-10.18-10.47-13.58l-7.92-4.39c-8.2-4.53-12.02-9.34-12.02-19.52,0-11.74,9.05-18.53,18.81-18.53,5.37,0,11.74,1.84,16.41,5.23Z"/>
    </g>
  </g>
  <g id="Muenze">
    <polygon class="cls-4" points="354.68 101.66 354.68 161.48 339.72 161.48 339.72 191.39 324.78 191.39 324.78 206.34 309.82 206.34 309.82 221.3 279.91 221.3 279.91 236.25 220.09 236.25 220.09 221.3 190.18 221.3 190.18 206.34 175.22 206.34 175.22 191.39 160.28 191.39 160.28 161.48 145.32 161.48 145.32 101.66 160.28 101.66 160.28 71.75 175.22 71.75 175.22 56.8 190.18 56.8 190.18 41.84 220.09 41.84 220.09 26.89 279.91 26.89 279.91 41.84 309.82 41.84 309.82 56.8 324.78 56.8 324.78 71.75 339.72 71.75 339.72 101.66 354.68 101.66"/>
    <g id="_000000_1" data-name="000000_1">
      <polygon points="160.27 131.57 160.27 116.61 160.27 101.66 145.32 101.66 145.32 116.61 145.32 131.57 145.32 146.52 145.32 161.48 160.27 161.48 160.27 146.52 160.27 131.57"/>
      <polygon points="175.23 86.7 175.23 71.75 160.27 71.75 160.27 86.7 160.27 101.66 175.23 101.66 175.23 86.7"/>
      <polygon points="175.23 161.48 160.27 161.48 160.27 176.43 160.27 191.39 175.23 191.39 175.23 176.43 175.23 161.48"/>
      <rect x="175.23" y="56.8" width="14.95" height="14.95"/>
      <rect x="175.23" y="191.39" width="14.95" height="14.95"/>
      <polygon points="220.09 56.8 220.09 41.84 205.14 41.84 190.18 41.84 190.18 56.8 205.14 56.8 220.09 56.8"/>
      <polygon points="205.14 206.34 190.18 206.34 190.18 221.3 205.14 221.3 220.09 221.3 220.09 206.34 205.14 206.34"/>
      <polygon points="250 41.84 264.95 41.84 279.91 41.84 279.91 26.89 264.95 26.89 250 26.89 235.05 26.89 220.09 26.89 220.09 41.84 235.05 41.84 250 41.84"/>
      <polygon points="250 221.3 235.05 221.3 220.09 221.3 220.09 236.25 235.05 236.25 250 236.25 264.95 236.25 279.91 236.25 279.91 221.3 264.95 221.3 250 221.3"/>
      <polygon points="294.86 56.8 309.82 56.8 309.82 41.84 294.86 41.84 279.91 41.84 279.91 56.8 294.86 56.8"/>
      <polygon points="279.91 206.34 279.91 221.3 294.86 221.3 309.82 221.3 309.82 206.34 294.86 206.34 279.91 206.34"/>
      <rect x="309.82" y="56.8" width="14.95" height="14.95"/>
      <rect x="309.82" y="191.39" width="14.95" height="14.95"/>
      <polygon points="324.77 101.66 339.73 101.66 339.73 86.7 339.73 71.75 324.77 71.75 324.77 86.7 324.77 101.66"/>
      <polygon points="324.77 176.43 324.77 191.39 339.73 191.39 339.73 176.43 339.73 161.48 324.77 161.48 324.77 176.43"/>
      <polygon points="339.73 101.66 339.73 116.61 339.73 131.57 339.73 146.52 339.73 161.48 354.68 161.48 354.68 146.52 354.68 131.57 354.68 116.61 354.68 101.66 339.73 101.66"/>
    </g>
    <g id="f4bf3a">
      <polygon class="cls-2" points="205.14 191.39 205.14 176.43 190.18 176.43 190.18 161.48 190.18 146.52 190.18 131.57 190.18 116.61 190.18 101.66 205.14 101.66 205.14 86.7 220.09 86.7 220.09 71.75 235.05 71.75 250 71.75 264.95 71.75 279.91 71.75 279.91 56.8 264.95 56.8 250 56.8 250 41.84 235.05 41.84 220.09 41.84 220.09 56.8 205.14 56.8 190.18 56.8 190.18 71.75 175.23 71.75 175.23 86.7 175.23 101.66 160.27 101.66 160.27 116.61 160.27 131.57 160.27 146.52 160.27 161.48 175.23 161.48 175.23 176.43 175.23 191.39 190.18 191.39 190.18 206.34 205.14 206.34 220.09 206.34 220.09 191.39 205.14 191.39"/>
      <polygon class="cls-2" points="324.77 101.66 324.77 86.7 309.82 86.7 309.82 71.75 294.86 71.75 279.91 71.75 279.91 86.7 294.86 86.7 294.86 101.66 309.82 101.66 309.82 116.61 309.82 131.57 309.82 146.52 309.82 161.48 294.86 161.48 294.86 176.43 279.91 176.43 279.91 191.39 264.95 191.39 250 191.39 250 206.34 235.05 206.34 220.09 206.34 220.09 221.3 235.05 221.3 250 221.3 264.95 221.3 279.91 221.3 279.91 206.34 294.86 206.34 309.82 206.34 309.82 191.39 324.77 191.39 324.77 176.43 324.77 161.48 339.73 161.48 339.73 146.52 339.73 131.57 339.73 116.61 339.73 101.66 324.77 101.66"/>
    </g>
    <g id="f2ec8f">
      <rect class="cls-6" x="190.18" y="161.48" width="14.95" height="14.95"/>
      <rect class="cls-6" x="205.14" y="176.43" width="14.95" height="14.95"/>
      <polygon class="cls-6" points="220.09 191.39 220.09 206.34 235.05 206.34 250 206.34 250 191.39 235.05 191.39 220.09 191.39"/>
      <polygon class="cls-6" points="264.95 41.84 250 41.84 250 56.8 264.95 56.8 279.91 56.8 279.91 41.84 264.95 41.84"/>
      <polygon class="cls-6" points="294.86 56.8 279.91 56.8 279.91 71.75 294.86 71.75 309.82 71.75 309.82 56.8 294.86 56.8"/>
      <rect class="cls-6" x="309.82" y="71.75" width="14.95" height="14.95"/>
    </g>
    <polygon id="ce8835" class="cls-7" points="294.86 101.66 279.91 101.66 279.91 86.7 250 86.7 250 71.75 235.05 71.75 220.09 71.75 220.09 86.7 205.14 86.7 205.14 101.66 190.18 101.66 190.18 116.61 190.18 131.57 190.18 146.52 190.18 161.48 205.14 161.48 205.14 176.43 220.09 176.43 220.09 191.39 235.05 191.39 250 191.39 264.95 191.39 279.91 191.39 279.91 176.43 294.86 176.43 294.86 161.48 309.82 161.48 309.82 146.52 309.82 131.57 309.82 116.61 309.82 101.66 294.86 101.66"/>
    <g id="ae774a">
      <polygon class="cls-8" points="264.95 71.75 250 71.75 250 86.7 279.91 86.7 279.91 71.75 264.95 71.75"/>
      <rect class="cls-8" x="279.91" y="86.7" width="14.95" height="14.95"/>
    </g>
    <g id="_1up" data-name="1up">
      <g id="_806cad" data-name="806cad">
        <polygon class="cls-1" points="255.61 125.96 255.61 131.57 255.61 137.18 255.61 142.79 255.61 148.39 261.22 148.39 261.22 142.79 261.22 137.18 261.22 131.57 261.22 125.96 261.22 120.35 255.61 120.35 255.61 125.96"/>
        <polygon class="cls-1" points="278.04 131.57 278.04 125.96 283.65 125.96 283.65 120.35 278.04 120.35 272.43 120.35 266.82 120.35 266.82 125.96 266.82 131.57 266.82 137.18 266.82 142.79 266.82 148.39 266.82 154 272.43 154 278.04 154 278.04 148.39 278.04 142.79 283.65 142.79 283.65 137.18 278.04 137.18 278.04 131.57"/>
        <polygon class="cls-1" points="250 142.79 250 137.18 250 131.57 250 125.96 250 120.35 244.39 120.35 238.78 120.35 238.78 125.96 238.78 131.57 238.78 137.18 238.78 142.79 238.78 148.39 244.39 148.39 244.39 154 250 154 255.61 154 255.61 148.39 250 148.39 250 142.79"/>
        <polygon class="cls-1" points="221.96 109.14 216.35 109.14 210.74 109.14 210.74 114.74 216.35 114.74 216.35 120.35 216.35 125.96 216.35 131.57 216.35 137.18 216.35 142.79 216.35 148.39 216.35 154 221.96 154 227.57 154 233.18 154 233.18 148.39 233.18 142.79 233.18 137.18 233.18 131.57 233.18 125.96 233.18 120.35 233.18 114.74 233.18 109.14 227.57 109.14 221.96 109.14"/>
        <polygon class="cls-1" points="283.65 125.96 283.65 131.57 283.65 137.18 289.26 137.18 289.26 131.57 289.26 125.96 283.65 125.96"/>
      </g>
      <g id="_46266c" data-name="46266c">
        <polygon class="cls-5" points="283.65 125.96 278.04 125.96 278.04 131.57 278.04 137.18 283.65 137.18 283.65 131.57 283.65 125.96"/>
        <path class="cls-5" d="M289.26,120.35v-5.61h-50.47v-11.22h-33.65v16.82h5.61v39.26h72.9v-11.22h5.61v-5.61h5.61v-22.43h-5.61ZM233.18,114.74v39.26h-16.82v-39.26h-5.61v-5.61h22.43v5.61ZM261.22,125.96v22.43h-5.61v5.61h-11.22v-5.61h-5.61v-28.04h11.22v28.04h5.61v-28.04h5.61v5.61ZM289.26,131.57v5.61h-5.61v5.61h-5.61v11.22h-11.22v-33.65h16.82v5.61h5.61v5.61Z"/>
      </g>
    </g>
  </g>
</svg>