<?xml version="1.0" encoding="UTF-8"?>
<svg id="Logo_light_horizontal" xmlns="http://www.w3.org/2000/svg" viewBox="0 0 1000 500">
  <defs>
    <style>
      .cls-1 {
        fill: #806cad;
      }

      .cls-2 {
        fill: #f4bf3a;
      }

      .cls-3 {
        fill: #46266c;
      }

      .cls-4 {
        fill: #f2ec8f;
      }

      .cls-5 {
        fill: #ce8835;
      }

      .cls-6 {
        fill: #ae774a;
      }
    </style>
  </defs>
  <g id="Text">
    <g>
      <path d="M579.08,357.32h5.49v5.19h-27.43v-46.74h10.97v41.55h10.97Z"/>
      <path d="M606.51,362.51h-10.97v-5.19h-5.49v-25.97h5.49v-5.19h16.46v5.19h5.49v15.58h-16.46v10.39h5.49v-5.19h10.97v5.19h-5.49v5.19h-5.49ZM606.51,341.74v-10.39h-5.49v10.39h5.49Z"/>
      <path d="M633.93,362.51v-5.19h-5.49v-5.19h-5.49v-25.97h10.97v25.97h5.49v-25.97h10.97v25.97h-5.49v5.19h-5.49v5.19h-5.49Z"/>
      <path d="M672.33,362.51h-10.97v-5.19h-5.49v-25.97h5.49v-5.19h16.46v5.19h5.49v15.58h-16.46v10.39h5.49v-5.19h10.97v5.19h-5.49v5.19h-5.49ZM672.33,341.74v-10.39h-5.49v10.39h5.49Z"/>
      <path d="M694.28,362.51h-5.49v-46.74h10.97v46.74h-5.49Z"/>
      <path d="M738.16,362.51h-10.97v-5.19h-5.49v-41.55h10.97v41.55h5.49v-41.55h10.97v41.55h-5.49v5.19h-5.49Z"/>
      <path d="M760.11,372.9h-5.49v-46.74h21.94v5.19h5.49v25.97h-5.49v5.19h-10.97v10.39h-5.49ZM771.08,357.32v-25.97h-5.49v25.97h5.49Z"/>
      <path d="M793.02,346.93h-5.49v-31.16h10.97v31.16h-5.49ZM793.02,362.51h-5.49v-10.39h10.97v10.39h-5.49Z"/>
    </g>
    <g>
      <path d="M494.88,245.32v4.85c-8.15-.9-11.56-1.08-17.44-1.08s-10.81.36-20.1,1.08v-4.85c10.24-1.08,12.13-1.8,8.15-14.72l-5.12-16.69h-35.64l-4.74,16.69c-3.6,12.74-2.09,13.64,8.34,14.72v4.85c-5.12-.54-11.56-1.08-16.11-1.08s-8.91.36-13.84,1.08v-4.85c8.91-1.08,11.18-2.87,14.6-14.72l29.95-102.49h4.74l32.8,102.66c4.17,12.92,5.88,13.46,14.41,14.54ZM458.48,207.81l-11.37-37.51c-1.71-6.28-3.22-11.67-4.17-17.23h-.76l-15.73,54.74h32.04Z"/>
      <path d="M502.65,134.4v-4.85c11.56.9,13.27,1.08,19.53,1.08s7.96-.18,19.53-1.08v4.85c-10.43,1.08-12.32,2.15-12.32,15.44v80.05c0,13.28,1.9,14.36,12.32,15.44v4.85c-11.56-.9-13.27-1.08-19.53-1.08s-7.96.18-19.53,1.08v-4.85c10.43-1.08,12.32-2.15,12.32-15.44v-80.05c0-13.28-1.9-14.36-12.32-15.44Z"/>
      <path d="M674.98,216.42c0,20.46-16.87,33.38-37.73,33.38h-41.71v-4.85c10.43-.54,12.32-1.97,12.32-14.36v-81.49c0-12.38-1.9-13.82-12.32-14.36v-4.85h37.73c21.23,0,36.02,10.95,36.02,28,0,13.46-8.91,23.33-21.42,28v.54c15.92,2.69,27.11,13.46,27.11,29.97ZM622.27,136.2v48.46h8.72c15.92,0,22.94-9.15,22.94-24.23s-7.39-24.23-24.46-24.23h-7.2ZM659.62,217.32c0-16.15-9.67-26.38-24.46-26.38h-12.89v45.41c0,5.03,1.14,7.18,9.67,7.18h4.93c15.73,0,22.75-9.87,22.75-26.2Z"/>
      <path d="M763.32,161.5v4.67c-7.58,1.44-8.15,2.51-11.18,10.77l-33.18,87.95c-5.69,14.36-10.43,18.13-19.34,18.13-9.67,0-15.92-5.38-15.92-12.03,0-4.67,2.47-7.9,7.39-7.9,4.17,0,7.39,2.15,7.77,8.26.19,4.13,2.65,5.2,4.74,5.2,2.46,0,5.88-1.97,9.48-11.67l8.91-23.87-24.46-64.08c-3.6-9.69-7.96-10.41-12.32-10.77v-4.67c7.01.9,11.94,1.08,15.92,1.08,3.6,0,8.72,0,17.44-1.08v4.67c-8.91.9-10.05,2.33-7.01,10.41l11.37,30.87c3.03,8.08,4.17,12.74,4.93,16.15h.57l17.25-46.67c3.03-8.26.95-9.33-7.77-10.77v-4.67c6.26.9,9.48,1.08,13.65,1.08,3.22,0,6.83-.18,11.75-1.08Z"/>
      <path d="M817.54,240.66v6.64c-5.12,2.87-10.81,4.31-17.06,4.31-11.94,0-18.58-6.46-18.58-20.64v-62.46h-13.46v-5.56c14.41-1.97,19.72-9.69,21.42-26.2h5.31v25.13h21.42v6.64h-21.42v59.05c0,12.92,4.17,16.15,11.37,16.15,4.17,0,7.58-1.08,11-3.05Z"/>
      <path d="M887.87,204.4h-45.12c.19,25.67,7.77,39.31,21.42,39.31,8.15,0,14.98-4.13,19.9-13.1l3.79,2.15c-3.79,9.69-13.65,18.85-26.54,18.85-19.15,0-33.18-14.54-33.18-45.77,0-29.44,13.65-45.77,31.66-45.77,15.74,0,28.25,12.56,28.25,39.85,0,1.44,0,2.33-.19,4.49ZM842.75,198.83h31.47c-.57-24.23-5.5-33.2-14.41-33.2-10.43,0-16.3,12.38-17.06,33.2Z"/>
      <path d="M952.9,166.71v19.38h-4.17c-1.9-12.21-7.77-20.46-18.58-20.46-9.1,0-14.41,5.21-14.41,14.54,0,7.54,4.55,11.85,12.89,16.15l11.94,6.1c10.24,5.21,16.68,12.56,16.68,24.05,0,13.46-11.75,25.13-27.68,25.13-8.72,0-18.01-2.69-24.64-7v-21.18h4.17c2.84,14.54,9.29,22.61,20.85,22.61,10.43,0,16.49-5.92,16.49-14.9s-5.69-12.92-14.03-17.23l-10.62-5.56c-11-5.74-16.11-11.85-16.11-24.77,0-14.9,12.13-23.51,25.21-23.51,7.2,0,15.74,2.33,21.99,6.64Z"/>
    </g>
  </g>
  <g id="Muenze">
    <g id="_000000_1" data-name="000000_1">
      <polygon points="64.56 250 64.56 228.18 64.56 206.36 42.74 206.36 42.74 228.18 42.74 250 42.74 271.82 42.74 293.64 64.56 293.64 64.56 271.82 64.56 250"/>
      <polygon points="86.38 184.54 86.38 162.71 64.56 162.71 64.56 184.54 64.56 206.36 86.38 206.36 86.38 184.54"/>
      <polygon points="86.38 293.64 64.56 293.64 64.56 315.46 64.56 337.28 86.38 337.28 86.38 315.46 86.38 293.64"/>
      <rect x="86.38" y="140.89" width="21.82" height="21.82"/>
      <rect x="86.38" y="337.28" width="21.82" height="21.82"/>
      <polygon points="151.85 140.89 151.85 119.07 130.03 119.07 108.21 119.07 108.21 140.89 130.03 140.89 151.85 140.89"/>
      <polygon points="130.03 359.11 108.21 359.11 108.21 380.93 130.03 380.93 151.85 380.93 151.85 359.11 130.03 359.11"/>
      <polygon points="195.49 119.07 217.31 119.07 239.13 119.07 239.13 97.25 217.31 97.25 195.49 97.25 173.67 97.25 151.85 97.25 151.85 119.07 173.67 119.07 195.49 119.07"/>
      <polygon points="195.49 380.93 173.67 380.93 151.85 380.93 151.85 402.75 173.67 402.75 195.49 402.75 217.31 402.75 239.13 402.75 239.13 380.93 217.31 380.93 195.49 380.93"/>
      <polygon points="260.95 140.89 282.78 140.89 282.78 119.07 260.95 119.07 239.13 119.07 239.13 140.89 260.95 140.89"/>
      <polygon points="239.13 359.11 239.13 380.93 260.95 380.93 282.78 380.93 282.78 359.11 260.95 359.11 239.13 359.11"/>
      <rect x="282.78" y="140.89" width="21.82" height="21.82"/>
      <rect x="282.78" y="337.28" width="21.82" height="21.82"/>
      <polygon points="304.6 206.36 326.42 206.36 326.42 184.54 326.42 162.71 304.6 162.71 304.6 184.54 304.6 206.36"/>
      <polygon points="304.6 315.46 304.6 337.28 326.42 337.28 326.42 315.46 326.42 293.64 304.6 293.64 304.6 315.46"/>
      <polygon points="326.42 206.36 326.42 228.18 326.42 250 326.42 271.82 326.42 293.64 348.24 293.64 348.24 271.82 348.24 250 348.24 228.18 348.24 206.36 326.42 206.36"/>
    </g>
    <g id="f4bf3a">
      <polygon class="cls-2" points="130.03 337.28 130.03 315.46 108.21 315.46 108.21 293.64 108.21 271.82 108.21 250 108.21 228.18 108.21 206.36 130.03 206.36 130.03 184.54 151.85 184.54 151.85 162.71 173.67 162.71 195.49 162.71 217.31 162.71 239.13 162.71 239.13 140.89 217.31 140.89 195.49 140.89 195.49 119.07 173.67 119.07 151.85 119.07 151.85 140.89 130.03 140.89 108.21 140.89 108.21 162.71 86.38 162.71 86.38 184.54 86.38 206.36 64.56 206.36 64.56 228.18 64.56 250 64.56 271.82 64.56 293.64 86.38 293.64 86.38 315.46 86.38 337.28 108.21 337.28 108.21 359.11 130.03 359.11 151.85 359.11 151.85 337.28 130.03 337.28"/>
      <polygon class="cls-2" points="304.6 206.36 304.6 184.54 282.78 184.54 282.78 162.71 260.95 162.71 239.13 162.71 239.13 184.54 260.95 184.54 260.95 206.36 282.78 206.36 282.78 228.18 282.78 250 282.78 271.82 282.78 293.64 260.95 293.64 260.95 315.46 239.13 315.46 239.13 337.28 217.31 337.28 195.49 337.28 195.49 359.11 173.67 359.11 151.85 359.11 151.85 380.93 173.67 380.93 195.49 380.93 217.31 380.93 239.13 380.93 239.13 359.11 260.95 359.11 282.78 359.11 282.78 337.28 304.6 337.28 304.6 315.46 304.6 293.64 326.42 293.64 326.42 271.82 326.42 250 326.42 228.18 326.42 206.36 304.6 206.36"/>
    </g>
    <g id="f2ec8f">
      <rect class="cls-4" x="108.21" y="293.64" width="21.82" height="21.82"/>
      <rect class="cls-4" x="130.03" y="315.46" width="21.82" height="21.82"/>
      <polygon class="cls-4" points="151.85 337.28 151.85 359.11 173.67 359.11 195.49 359.11 195.49 337.28 173.67 337.28 151.85 337.28"/>
      <polygon class="cls-4" points="217.31 119.07 195.49 119.07 195.49 140.89 217.31 140.89 239.13 140.89 239.13 119.07 217.31 119.07"/>
      <polygon class="cls-4" points="260.95 140.89 239.13 140.89 239.13 162.71 260.95 162.71 282.78 162.71 282.78 140.89 260.95 140.89"/>
      <rect class="cls-4" x="282.78" y="162.71" width="21.82" height="21.82"/>
    </g>
    <polygon id="ce8835" class="cls-5" points="260.95 206.36 239.13 206.36 239.13 184.54 195.49 184.54 195.49 162.71 173.67 162.71 151.85 162.71 151.85 184.54 130.03 184.54 130.03 206.36 108.21 206.36 108.21 228.18 108.21 250 108.21 271.82 108.21 293.64 130.03 293.64 130.03 315.46 151.85 315.46 151.85 337.28 173.67 337.28 195.49 337.28 217.31 337.28 239.13 337.28 239.13 315.46 260.95 315.46 260.95 293.64 282.78 293.64 282.78 271.82 282.78 250 282.78 228.18 282.78 206.36 260.95 206.36"/>
    <g id="ae774a">
      <polygon class="cls-6" points="217.31 162.71 195.49 162.71 195.49 184.54 239.13 184.54 239.13 162.71 217.31 162.71"/>
      <rect class="cls-6" x="239.13" y="184.54" width="21.82" height="21.82"/>
    </g>
    <g id="_1up" data-name="1up">
      <g id="_806cad" data-name="806cad">
        <polygon class="cls-1" points="203.67 241.82 203.67 250 203.67 258.18 203.67 266.37 203.67 274.55 211.86 274.55 211.86 266.37 211.86 258.18 211.86 250 211.86 241.82 211.86 233.63 203.67 233.63 203.67 241.82"/>
        <polygon class="cls-1" points="236.41 250 236.41 241.82 244.59 241.82 244.59 233.63 236.41 233.63 228.22 233.63 220.04 233.63 220.04 241.82 220.04 250 220.04 258.18 220.04 266.37 220.04 274.55 220.04 282.73 228.22 282.73 236.41 282.73 236.41 274.55 236.41 266.37 244.59 266.37 244.59 258.18 236.41 258.18 236.41 250"/>
        <polygon class="cls-1" points="195.49 266.37 195.49 258.18 195.49 250 195.49 241.82 195.49 233.63 187.31 233.63 179.12 233.63 179.12 241.82 179.12 250 179.12 258.18 179.12 266.37 179.12 274.55 187.31 274.55 187.31 282.73 195.49 282.73 203.67 282.73 203.67 274.55 195.49 274.55 195.49 266.37"/>
        <polygon class="cls-1" points="154.58 217.27 146.39 217.27 138.21 217.27 138.21 225.45 146.39 225.45 146.39 233.63 146.39 241.82 146.39 250 146.39 258.18 146.39 266.37 146.39 274.55 146.39 282.73 154.58 282.73 162.76 282.73 170.94 282.73 170.94 274.55 170.94 266.37 170.94 258.18 170.94 250 170.94 241.82 170.94 233.63 170.94 225.45 170.94 217.27 162.76 217.27 154.58 217.27"/>
        <polygon class="cls-1" points="244.59 241.82 244.59 250 244.59 258.18 252.77 258.18 252.77 250 252.77 241.82 244.59 241.82"/>
      </g>
      <g id="_46266c" data-name="46266c">
        <polygon class="cls-3" points="244.59 241.82 236.41 241.82 236.41 250 236.41 258.18 244.59 258.18 244.59 250 244.59 241.82"/>
        <path class="cls-3" d="M252.77,233.63v-8.18h-73.65v-16.37h-49.1v24.55h8.18v57.28h106.38v-16.37h8.18v-8.18h8.18v-32.73h-8.18ZM170.94,225.45v57.28h-24.55v-57.28h-8.18v-8.18h32.73v8.18ZM211.86,241.82v32.73h-8.18v8.18h-16.37v-8.18h-8.18v-40.91h16.37v40.91h8.18v-40.91h8.18v8.18ZM252.77,250v8.18h-8.18v8.18h-8.18v16.37h-16.37v-49.1h24.55v8.18h8.18v8.18Z"/>
      </g>
    </g>
  </g>
</svg>