<?xml version="1.0" encoding="UTF-8"?>
<svg id="Muenze_dark" xmlns="http://www.w3.org/2000/svg" viewBox="0 0 500 500">
  <defs>
    <style>
      .cls-1 {
        fill: #806cad;
      }

      .cls-2 {
        fill: #f4bf3a;
      }

      .cls-3 {
        fill: none;
        stroke: #fff;
        stroke-linejoin: round;
        stroke-width: 14px;
      }

      .cls-4 {
        fill: #46266c;
      }

      .cls-5 {
        fill: #f2ec8f;
      }

      .cls-6 {
        fill: #ce8835;
      }

      .cls-7 {
        fill: #ae774a;
      }
    </style>
  </defs>
  <g id="Muenze">
    <polygon class="cls-3" points="452 192.29 452 307.72 423.14 307.72 423.14 365.43 394.29 365.43 394.29 394.28 365.42 394.28 365.42 423.15 307.71 423.15 307.71 452 192.29 452 192.29 423.15 134.58 423.15 134.58 394.28 105.71 394.28 105.71 365.43 76.86 365.43 76.86 307.72 48 307.72 48 192.29 76.86 192.29 76.86 134.57 105.71 134.57 105.71 105.72 134.58 105.72 134.58 76.86 192.29 76.86 192.29 48.01 307.71 48.01 307.71 76.86 365.42 76.86 365.42 105.72 394.29 105.72 394.29 134.57 423.14 134.57 423.14 192.29 452 192.29"/>
    <g id="_000000_1" data-name="000000_1">
      <polygon points="76.86 250 76.86 221.14 76.86 192.29 48 192.29 48 221.14 48 250 48 278.86 48 307.71 76.86 307.71 76.86 278.86 76.86 250"/>
      <polygon points="105.71 163.43 105.71 134.57 76.86 134.57 76.86 163.43 76.86 192.29 105.71 192.29 105.71 163.43"/>
      <polygon points="105.71 307.71 76.86 307.71 76.86 336.57 76.86 365.43 105.71 365.43 105.71 336.57 105.71 307.71"/>
      <rect x="105.71" y="105.71" width="28.86" height="28.86"/>
      <rect x="105.71" y="365.43" width="28.86" height="28.86"/>
      <polygon points="192.29 105.71 192.29 76.86 163.43 76.86 134.57 76.86 134.57 105.71 163.43 105.71 192.29 105.71"/>
      <polygon points="163.43 394.29 134.57 394.29 134.57 423.14 163.43 423.14 192.29 423.14 192.29 394.29 163.43 394.29"/>
      <polygon points="250 76.86 278.86 76.86 307.71 76.86 307.71 48 278.86 48 250 48 221.14 48 192.29 48 192.29 76.86 221.14 76.86 250 76.86"/>
      <polygon points="250 423.14 221.14 423.14 192.29 423.14 192.29 452 221.14 452 250 452 278.86 452 307.71 452 307.71 423.14 278.86 423.14 250 423.14"/>
      <polygon points="336.57 105.71 365.43 105.71 365.43 76.86 336.57 76.86 307.71 76.86 307.71 105.71 336.57 105.71"/>
      <polygon points="307.71 394.29 307.71 423.14 336.57 423.14 365.43 423.14 365.43 394.29 336.57 394.29 307.71 394.29"/>
      <rect x="365.43" y="105.71" width="28.86" height="28.86"/>
      <rect x="365.43" y="365.43" width="28.86" height="28.86"/>
      <polygon points="394.29 192.29 423.14 192.29 423.14 163.43 423.14 134.57 394.29 134.57 394.29 163.43 394.29 192.29"/>
      <polygon points="394.29 336.57 394.29 365.43 423.14 365.43 423.14 336.57 423.14 307.71 394.29 307.71 394.29 336.57"/>
      <polygon points="423.14 192.29 423.14 221.14 423.14 250 423.14 278.86 423.14 307.71 452 307.71 452 278.86 452 250 452 221.14 452 192.29 423.14 192.29"/>
    </g>
    <g id="f4bf3a">
      <polygon class="cls-2" points="163.43 365.43 163.43 336.57 134.57 336.57 134.57 307.71 134.57 278.86 134.57 250 134.57 221.14 134.57 192.29 163.43 192.29 163.43 163.43 192.29 163.43 192.29 134.57 221.14 134.57 250 134.57 278.86 134.57 307.71 134.57 307.71 105.71 278.86 105.71 250 105.71 250 76.86 221.14 76.86 192.29 76.86 192.29 105.71 163.43 105.71 134.57 105.71 134.57 134.57 105.71 134.57 105.71 163.43 105.71 192.29 76.86 192.29 76.86 221.14 76.86 250 76.86 278.86 76.86 307.71 105.71 307.71 105.71 336.57 105.71 365.43 134.57 365.43 134.57 394.29 163.43 394.29 192.29 394.29 192.29 365.43 163.43 365.43"/>
      <polygon class="cls-2" points="394.29 192.29 394.29 163.43 365.43 163.43 365.43 134.57 336.57 134.57 307.71 134.57 307.71 163.43 336.57 163.43 336.57 192.29 365.43 192.29 365.43 221.14 365.43 250 365.43 278.86 365.43 307.71 336.57 307.71 336.57 336.57 307.71 336.57 307.71 365.43 278.86 365.43 250 365.43 250 394.29 221.14 394.29 192.29 394.29 192.29 423.14 221.14 423.14 250 423.14 278.86 423.14 307.71 423.14 307.71 394.29 336.57 394.29 365.43 394.29 365.43 365.43 394.29 365.43 394.29 336.57 394.29 307.71 423.14 307.71 423.14 278.86 423.14 250 423.14 221.14 423.14 192.29 394.29 192.29"/>
    </g>
    <g id="f2ec8f">
      <rect class="cls-5" x="134.57" y="307.71" width="28.86" height="28.86"/>
      <rect class="cls-5" x="163.43" y="336.57" width="28.86" height="28.86"/>
      <polygon class="cls-5" points="192.29 365.43 192.29 394.29 221.14 394.29 250 394.29 250 365.43 221.14 365.43 192.29 365.43"/>
      <polygon class="cls-5" points="278.86 76.86 250 76.86 250 105.71 278.86 105.71 307.71 105.71 307.71 76.86 278.86 76.86"/>
      <polygon class="cls-5" points="336.57 105.71 307.71 105.71 307.71 134.57 336.57 134.57 365.43 134.57 365.43 105.71 336.57 105.71"/>
      <rect class="cls-5" x="365.43" y="134.57" width="28.86" height="28.86"/>
    </g>
    <polygon id="ce8835" class="cls-6" points="336.57 192.29 307.71 192.29 307.71 163.43 250 163.43 250 134.57 221.14 134.57 192.29 134.57 192.29 163.43 163.43 163.43 163.43 192.29 134.57 192.29 134.57 221.14 134.57 250 134.57 278.86 134.57 307.71 163.43 307.71 163.43 336.57 192.29 336.57 192.29 365.43 221.14 365.43 250 365.43 278.86 365.43 307.71 365.43 307.71 336.57 336.57 336.57 336.57 307.71 365.43 307.71 365.43 278.86 365.43 250 365.43 221.14 365.43 192.29 336.57 192.29"/>
    <g id="ae774a">
      <polygon class="cls-7" points="278.86 134.57 250 134.57 250 163.43 307.71 163.43 307.71 134.57 278.86 134.57"/>
      <rect class="cls-7" x="307.71" y="163.43" width="28.86" height="28.86"/>
    </g>
    <g id="_1up" data-name="1up">
      <g id="_806cad" data-name="806cad">
        <polygon class="cls-1" points="260.82 239.18 260.82 250 260.82 260.82 260.82 271.64 260.82 282.46 271.64 282.46 271.64 271.64 271.64 260.82 271.64 250 271.64 239.18 271.64 228.36 260.82 228.36 260.82 239.18"/>
        <polygon class="cls-1" points="304.11 250 304.11 239.18 314.93 239.18 314.93 228.36 304.11 228.36 293.29 228.36 282.46 228.36 282.46 239.18 282.46 250 282.46 260.82 282.46 271.64 282.46 282.46 282.46 293.29 293.29 293.29 304.11 293.29 304.11 282.46 304.11 271.64 314.93 271.64 314.93 260.82 304.11 260.82 304.11 250"/>
        <polygon class="cls-1" points="250 271.64 250 260.82 250 250 250 239.18 250 228.36 239.18 228.36 228.36 228.36 228.36 239.18 228.36 250 228.36 260.82 228.36 271.64 228.36 282.46 239.18 282.46 239.18 293.29 250 293.29 260.82 293.29 260.82 282.46 250 282.46 250 271.64"/>
        <polygon class="cls-1" points="195.89 206.71 185.07 206.71 174.25 206.71 174.25 217.54 185.07 217.54 185.07 228.36 185.07 239.18 185.07 250 185.07 260.82 185.07 271.64 185.07 282.46 185.07 293.29 195.89 293.29 206.71 293.29 217.54 293.29 217.54 282.46 217.54 271.64 217.54 260.82 217.54 250 217.54 239.18 217.54 228.36 217.54 217.54 217.54 206.71 206.71 206.71 195.89 206.71"/>
        <polygon class="cls-1" points="314.93 239.18 314.93 250 314.93 260.82 325.75 260.82 325.75 250 325.75 239.18 314.93 239.18"/>
      </g>
      <g id="_46266c" data-name="46266c">
        <polygon class="cls-4" points="314.93 239.18 304.11 239.18 304.11 250 304.11 260.82 314.93 260.82 314.93 250 314.93 239.18"/>
        <path class="cls-4" d="M325.75,228.36v-10.82h-97.39v-21.64h-64.93v32.46h10.82v75.75h140.68v-21.64h10.82v-10.82h10.82v-43.29h-10.82ZM217.54,217.54v75.75h-32.46v-75.75h-10.82v-10.82h43.29v10.82ZM271.64,239.18v43.29h-10.82v10.82h-21.64v-10.82h-10.82v-54.11h21.64v54.11h10.82v-54.11h10.82v10.82ZM325.75,250v10.82h-10.82v10.82h-10.82v21.64h-21.64v-64.93h32.46v10.82h10.82v10.82Z"/>
      </g>
    </g>
  </g>
</svg>