<?xml version="1.0" encoding="UTF-8"?>
<svg id="Muenze_light" xmlns="http://www.w3.org/2000/svg" viewBox="0 0 500 500">
  <defs>
    <style>
      .cls-1 {
        fill: #806cad;
      }

      .cls-2 {
        fill: #f4bf3a;
      }

      .cls-3 {
        fill: #46266c;
      }

      .cls-4 {
        fill: #f2ec8f;
      }

      .cls-5 {
        fill: #ce8835;
      }

      .cls-6 {
        fill: #ae774a;
      }
    </style>
  </defs>
  <g id="_000000" data-name="000000">
    <polygon points="76.92 250 76.92 221.15 76.92 192.31 48.07 192.31 48.07 221.15 48.07 250 48.07 278.85 48.07 307.69 76.92 307.69 76.92 278.85 76.92 250"/>
    <polygon points="105.76 163.46 105.76 134.61 76.92 134.61 76.92 163.46 76.92 192.31 105.76 192.31 105.76 163.46"/>
    <polygon points="105.76 307.69 76.92 307.69 76.92 336.54 76.92 365.39 105.76 365.39 105.76 336.54 105.76 307.69"/>
    <rect x="105.76" y="105.76" width="28.85" height="28.85"/>
    <rect x="105.76" y="365.39" width="28.85" height="28.85"/>
    <polygon points="192.31 105.76 192.31 76.92 163.46 76.92 134.61 76.92 134.61 105.76 163.46 105.76 192.31 105.76"/>
    <polygon points="163.46 394.24 134.61 394.24 134.61 423.08 163.46 423.08 192.31 423.08 192.31 394.24 163.46 394.24"/>
    <polygon points="250 76.92 278.85 76.92 307.69 76.92 307.69 48.07 278.85 48.07 250 48.07 221.15 48.07 192.31 48.07 192.31 76.92 221.15 76.92 250 76.92"/>
    <polygon points="250 423.08 221.15 423.08 192.31 423.08 192.31 451.93 221.15 451.93 250 451.93 278.85 451.93 307.69 451.93 307.69 423.08 278.85 423.08 250 423.08"/>
    <polygon points="336.54 105.76 365.39 105.76 365.39 76.92 336.54 76.92 307.69 76.92 307.69 105.76 336.54 105.76"/>
    <polygon points="307.69 394.24 307.69 423.08 336.54 423.08 365.39 423.08 365.39 394.24 336.54 394.24 307.69 394.24"/>
    <rect x="365.39" y="105.76" width="28.85" height="28.85"/>
    <rect x="365.39" y="365.39" width="28.85" height="28.85"/>
    <polygon points="394.24 192.31 423.08 192.31 423.08 163.46 423.08 134.61 394.24 134.61 394.24 163.46 394.24 192.31"/>
    <polygon points="394.24 336.54 394.24 365.39 423.08 365.39 423.08 336.54 423.08 307.69 394.24 307.69 394.24 336.54"/>
    <polygon points="423.08 192.31 423.08 221.15 423.08 250 423.08 278.85 423.08 307.69 451.93 307.69 451.93 278.85 451.93 250 451.93 221.15 451.93 192.31 423.08 192.31"/>
  </g>
  <g id="f4bf3a">
    <polygon class="cls-2" points="163.46 365.39 163.46 336.54 134.61 336.54 134.61 307.69 134.61 278.85 134.61 250 134.61 221.15 134.61 192.31 163.46 192.31 163.46 163.46 192.31 163.46 192.31 134.61 221.15 134.61 250 134.61 278.85 134.61 307.69 134.61 307.69 105.76 278.85 105.76 250 105.76 250 76.92 221.15 76.92 192.31 76.92 192.31 105.76 163.46 105.76 134.61 105.76 134.61 134.61 105.76 134.61 105.76 163.46 105.76 192.31 76.92 192.31 76.92 221.15 76.92 250 76.92 278.85 76.92 307.69 105.76 307.69 105.76 336.54 105.76 365.39 134.61 365.39 134.61 394.24 163.46 394.24 192.31 394.24 192.31 365.39 163.46 365.39"/>
    <polygon class="cls-2" points="394.24 192.31 394.24 163.46 365.39 163.46 365.39 134.61 336.54 134.61 307.69 134.61 307.69 163.46 336.54 163.46 336.54 192.31 365.39 192.31 365.39 221.15 365.39 250 365.39 278.85 365.39 307.69 336.54 307.69 336.54 336.54 307.69 336.54 307.69 365.39 278.85 365.39 250 365.39 250 394.24 221.15 394.24 192.31 394.24 192.31 423.08 221.15 423.08 250 423.08 278.85 423.08 307.69 423.08 307.69 394.24 336.54 394.24 365.39 394.24 365.39 365.39 394.24 365.39 394.24 336.54 394.24 307.69 423.08 307.69 423.08 278.85 423.08 250 423.08 221.15 423.08 192.31 394.24 192.31"/>
  </g>
  <g id="f2ec8f">
    <rect class="cls-4" x="134.61" y="307.69" width="28.85" height="28.85"/>
    <rect class="cls-4" x="163.46" y="336.54" width="28.85" height="28.85"/>
    <polygon class="cls-4" points="192.31 365.39 192.31 394.24 221.15 394.24 250 394.24 250 365.39 221.15 365.39 192.31 365.39"/>
    <polygon class="cls-4" points="278.85 76.92 250 76.92 250 105.76 278.85 105.76 307.69 105.76 307.69 76.92 278.85 76.92"/>
    <polygon class="cls-4" points="336.54 105.76 307.69 105.76 307.69 134.61 336.54 134.61 365.39 134.61 365.39 105.76 336.54 105.76"/>
    <rect class="cls-4" x="365.39" y="134.61" width="28.85" height="28.85"/>
  </g>
  <polygon id="ce8835" class="cls-5" points="336.54 192.31 307.69 192.31 307.69 163.46 250 163.46 250 134.61 221.15 134.61 192.31 134.61 192.31 163.46 163.46 163.46 163.46 192.31 134.61 192.31 134.61 221.15 134.61 250 134.61 278.85 134.61 307.69 163.46 307.69 163.46 336.54 192.31 336.54 192.31 365.39 221.15 365.39 250 365.39 278.85 365.39 307.69 365.39 307.69 336.54 336.54 336.54 336.54 307.69 365.39 307.69 365.39 278.85 365.39 250 365.39 221.15 365.39 192.31 336.54 192.31"/>
  <g id="ae774a">
    <polygon class="cls-6" points="278.85 134.61 250 134.61 250 163.46 307.69 163.46 307.69 134.61 278.85 134.61"/>
    <rect class="cls-6" x="307.69" y="163.46" width="28.85" height="28.85"/>
  </g>
  <g id="_1up" data-name="1up">
    <g id="_806cad" data-name="806cad">
      <polygon class="cls-1" points="260.82 239.18 260.82 250 260.82 260.82 260.82 271.64 260.82 282.45 271.64 282.45 271.64 271.64 271.64 260.82 271.64 250 271.64 239.18 271.64 228.36 260.82 228.36 260.82 239.18"/>
      <polygon class="cls-1" points="304.09 250 304.09 239.18 314.91 239.18 314.91 228.36 304.09 228.36 293.27 228.36 282.45 228.36 282.45 239.18 282.45 250 282.45 260.82 282.45 271.64 282.45 282.45 282.45 293.27 293.27 293.27 304.09 293.27 304.09 282.45 304.09 271.64 314.91 271.64 314.91 260.82 304.09 260.82 304.09 250"/>
      <polygon class="cls-1" points="250 271.64 250 260.82 250 250 250 239.18 250 228.36 239.18 228.36 228.36 228.36 228.36 239.18 228.36 250 228.36 260.82 228.36 271.64 228.36 282.45 239.18 282.45 239.18 293.27 250 293.27 260.82 293.27 260.82 282.45 250 282.45 250 271.64"/>
      <polygon class="cls-1" points="195.91 206.73 185.09 206.73 174.28 206.73 174.28 217.55 185.09 217.55 185.09 228.36 185.09 239.18 185.09 250 185.09 260.82 185.09 271.64 185.09 282.45 185.09 293.27 195.91 293.27 206.73 293.27 217.55 293.27 217.55 282.45 217.55 271.64 217.55 260.82 217.55 250 217.55 239.18 217.55 228.36 217.55 217.55 217.55 206.73 206.73 206.73 195.91 206.73"/>
      <polygon class="cls-1" points="314.91 239.18 314.91 250 314.91 260.82 325.72 260.82 325.72 250 325.72 239.18 314.91 239.18"/>
    </g>
    <g id="_46266c" data-name="46266c">
      <polygon class="cls-3" points="314.91 239.18 304.09 239.18 304.09 250 304.09 260.82 314.91 260.82 314.91 250 314.91 239.18"/>
      <path class="cls-3" d="M325.72,228.36v-10.82h-97.36v-21.64h-64.91v32.45h10.82v75.72h140.63v-21.64h10.82v-10.82h10.82v-43.27h-10.82ZM217.55,217.55v75.72h-32.45v-75.72h-10.82v-10.82h43.27v10.82ZM271.64,239.18v43.27h-10.82v10.82h-21.64v-10.82h-10.82v-54.09h21.64v54.09h10.82v-54.09h10.82v10.82ZM325.72,250v10.82h-10.82v10.82h-10.82v21.64h-21.64v-64.91h32.45v10.82h10.82v10.82Z"/>
    </g>
  </g>
</svg>