<?xml version="1.0" encoding="UTF-8"?>
<svg id="text_logo_dark" xmlns="http://www.w3.org/2000/svg" viewBox="0 0 1206 224">
  <defs>
    <style>
      .cls-1 {
        fill: #806cad;
      }

      .cls-2 {
        fill: #f4bf3a;
      }

      .cls-3 {
        fill: #fff;
      }

      .cls-4 {
        fill: none;
        stroke: #fff;
        stroke-linejoin: round;
        stroke-width: 6px;
      }

      .cls-5 {
        fill: #46266c;
      }

      .cls-6 {
        fill: #f2ec8f;
      }

      .cls-7 {
        fill: #ce8835;
      }

      .cls-8 {
        fill: #ae774a;
      }
    </style>
  </defs>
  <g>
    <g>
      <path class="cls-3" d="M751.59,137.07h10.22v10.22h-51.12V55.28h20.45v81.79h20.45Z"/>
      <path class="cls-3" d="M802.71,147.3h-20.45v-10.22h-10.22v-51.12h10.22v-10.22h30.67v10.22h10.22v30.67h-30.67v20.45h10.22v-10.22h20.45v10.22h-10.22v10.22h-10.22ZM802.71,106.4v-20.45h-10.22v20.45h10.22Z"/>
      <path class="cls-3" d="M853.83,147.3v-10.22h-10.22v-10.22h-10.22v-51.12h20.45v51.12h10.22v-51.12h20.45v51.12h-10.22v10.22h-10.22v10.22h-10.22Z"/>
      <path class="cls-3" d="M925.4,147.3h-20.45v-10.22h-10.22v-51.12h10.22v-10.22h30.67v10.22h10.22v30.67h-30.67v20.45h10.22v-10.22h20.45v10.22h-10.22v10.22h-10.22ZM925.4,106.4v-20.45h-10.22v20.45h10.22Z"/>
      <path class="cls-3" d="M966.29,147.3h-10.22V55.28h20.45v92.02h-10.22Z"/>
      <path class="cls-3" d="M1048.09,147.3h-20.45v-10.22h-10.22V55.28h20.45v81.79h10.22V55.28h20.45v81.79h-10.22v10.22h-10.22Z"/>
      <path class="cls-3" d="M1088.98,167.75h-10.22v-92.02h40.9v10.22h10.22v51.12h-10.22v10.22h-20.45v20.45h-10.22ZM1109.43,137.07v-51.12h-10.22v51.12h10.22Z"/>
      <path class="cls-3" d="M1150.33,116.63h-10.22v-61.34h20.45v61.34h-10.22ZM1150.33,147.3h-10.22v-20.45h20.45v20.45h-10.22Z"/>
    </g>
    <g>
      <path class="cls-3" d="M319.13,144.28v3.94c-6.27-.73-8.89-.87-13.41-.87s-8.31.29-15.45.87v-3.94c7.87-.87,9.33-1.46,6.27-11.95l-3.94-13.55h-27.4l-3.64,13.55c-2.77,10.35-1.6,11.08,6.41,11.95v3.94c-3.94-.44-8.89-.87-12.39-.87s-6.85.29-10.64.87v-3.94c6.85-.87,8.6-2.33,11.22-11.95l23.03-83.22h3.64l25.21,83.37c3.21,10.49,4.52,10.93,11.08,11.81ZM291.15,113.82l-8.74-30.46c-1.31-5.1-2.48-9.47-3.21-13.99h-.58l-12.1,44.45h24.63Z"/>
      <path class="cls-3" d="M325.11,54.21v-3.94c8.89.73,10.2.87,15.01.87s6.12-.15,15.01-.87v3.94c-8.02.87-9.47,1.75-9.47,12.53v65c0,10.79,1.46,11.66,9.47,12.53v3.94c-8.89-.73-10.2-.87-15.01-.87s-6.12.15-15.01.87v-3.94c8.02-.87,9.47-1.75,9.47-12.53v-65c0-10.79-1.46-11.66-9.47-12.53Z"/>
      <path class="cls-3" d="M457.6,120.82c0,16.62-12.97,27.11-29,27.11h-32.06v-3.94c8.02-.44,9.47-1.6,9.47-11.66v-66.17c0-10.06-1.46-11.22-9.47-11.66v-3.94h29c16.32,0,27.69,8.89,27.69,22.74,0,10.93-6.85,18.95-16.47,22.74v.44c12.24,2.19,20.84,10.93,20.84,24.34ZM417.08,55.67v39.35h6.7c12.24,0,17.64-7.43,17.64-19.68s-5.68-19.68-18.8-19.68h-5.54ZM445.79,121.55c0-13.12-7.43-21.43-18.8-21.43h-9.91v36.88c0,4.08.87,5.83,7.43,5.83h3.79c12.1,0,17.49-8.02,17.49-21.28Z"/>
      <path class="cls-3" d="M525.52,76.22v3.79c-5.83,1.17-6.27,2.04-8.6,8.75l-25.51,71.42c-4.37,11.66-8.02,14.72-14.87,14.72-7.43,0-12.24-4.37-12.24-9.77,0-3.79,1.9-6.41,5.68-6.41,3.21,0,5.69,1.75,5.98,6.7.15,3.35,2.04,4.23,3.64,4.23,1.89,0,4.52-1.6,7.29-9.47l6.85-19.38-18.8-52.03c-2.77-7.87-6.12-8.45-9.47-8.75v-3.79c5.39.73,9.18.87,12.24.87,2.77,0,6.7,0,13.41-.87v3.79c-6.85.73-7.72,1.89-5.39,8.45l8.74,25.07c2.33,6.56,3.21,10.35,3.79,13.12h.44l13.26-37.89c2.33-6.7.73-7.58-5.98-8.75v-3.79c4.81.73,7.29.87,10.49.87,2.48,0,5.25-.15,9.04-.87Z"/>
      <path class="cls-3" d="M567.21,140.49v5.39c-3.94,2.33-8.31,3.5-13.12,3.5-9.18,0-14.28-5.25-14.28-16.76v-50.72h-10.35v-4.52c11.08-1.6,15.16-7.87,16.47-21.28h4.08v20.4h16.47v5.39h-16.47v47.95c0,10.49,3.21,13.12,8.74,13.12,3.21,0,5.83-.87,8.45-2.48Z"/>
      <path class="cls-3" d="M621.28,111.05h-34.69c.15,20.84,5.98,31.92,16.47,31.92,6.27,0,11.51-3.35,15.3-10.64l2.92,1.75c-2.92,7.87-10.49,15.3-20.4,15.3-14.72,0-25.51-11.81-25.51-37.17,0-23.9,10.49-37.17,24.34-37.17,12.1,0,21.72,10.2,21.72,32.36,0,1.17,0,1.89-.15,3.64ZM586.59,106.53h24.19c-.44-19.68-4.23-26.96-11.08-26.96-8.02,0-12.53,10.06-13.12,26.96Z"/>
      <path class="cls-3" d="M671.27,80.44v15.74h-3.21c-1.46-9.91-5.98-16.62-14.28-16.62-7,0-11.08,4.23-11.08,11.81,0,6.12,3.5,9.62,9.91,13.12l9.18,4.96c7.87,4.23,12.83,10.2,12.83,19.53,0,10.93-9.04,20.41-21.28,20.41-6.7,0-13.85-2.19-18.95-5.68v-17.2h3.21c2.19,11.81,7.14,18.36,16.03,18.36,8.02,0,12.68-4.81,12.68-12.1s-4.37-10.49-10.79-13.99l-8.16-4.52c-8.45-4.66-12.39-9.62-12.39-20.11,0-12.1,9.33-19.09,19.38-19.09,5.54,0,12.1,1.89,16.91,5.39Z"/>
    </g>
  </g>
  <g id="Muenze">
    <polygon class="cls-4" points="199.47 90 199.47 134 188.47 134 188.47 156.01 177.47 156.01 177.47 167.01 166.46 167.01 166.46 178.01 144.46 178.01 144.46 189.01 100.46 189.01 100.46 178.01 78.46 178.01 78.46 167.01 67.45 167.01 67.45 156.01 56.45 156.01 56.45 134 45.45 134 45.45 90 56.45 90 56.45 67.99 67.45 67.99 67.45 57 78.46 57 78.46 45.99 100.46 45.99 100.46 34.99 144.46 34.99 144.46 45.99 166.46 45.99 166.46 57 177.47 57 177.47 67.99 188.47 67.99 188.47 90 199.47 90"/>
    <g id="_000000_1" data-name="000000_1">
      <polygon points="56.45 112 56.45 101 56.45 90 45.45 90 45.45 101 45.45 112 45.45 123 45.45 134 56.45 134 56.45 123 56.45 112"/>
      <polygon points="67.45 79 67.45 67.99 56.45 67.99 56.45 79 56.45 90 67.45 90 67.45 79"/>
      <polygon points="67.45 134 56.45 134 56.45 145 56.45 156.01 67.45 156.01 67.45 145 67.45 134"/>
      <rect x="67.45" y="56.99" width="11" height="11"/>
      <rect x="67.45" y="156.01" width="11" height="11"/>
      <polygon points="100.46 56.99 100.46 45.99 89.46 45.99 78.45 45.99 78.45 56.99 89.46 56.99 100.46 56.99"/>
      <polygon points="89.46 167.01 78.45 167.01 78.45 178.01 89.46 178.01 100.46 178.01 100.46 167.01 89.46 167.01"/>
      <polygon points="122.46 45.99 133.46 45.99 144.46 45.99 144.46 34.99 133.46 34.99 122.46 34.99 111.46 34.99 100.46 34.99 100.46 45.99 111.46 45.99 122.46 45.99"/>
      <polygon points="122.46 178.01 111.46 178.01 100.46 178.01 100.46 189.01 111.46 189.01 122.46 189.01 133.46 189.01 144.46 189.01 144.46 178.01 133.46 178.01 122.46 178.01"/>
      <polygon points="155.47 56.99 166.47 56.99 166.47 45.99 155.47 45.99 144.46 45.99 144.46 56.99 155.47 56.99"/>
      <polygon points="144.46 167.01 144.46 178.01 155.47 178.01 166.47 178.01 166.47 167.01 155.47 167.01 144.46 167.01"/>
      <rect x="166.47" y="56.99" width="11" height="11"/>
      <rect x="166.47" y="156.01" width="11" height="11"/>
      <polygon points="177.47 90 188.47 90 188.47 79 188.47 67.99 177.47 67.99 177.47 79 177.47 90"/>
      <polygon points="177.47 145 177.47 156.01 188.47 156.01 188.47 145 188.47 134 177.47 134 177.47 145"/>
      <polygon points="188.47 90 188.47 101 188.47 112 188.47 123 188.47 134 199.47 134 199.47 123 199.47 112 199.47 101 199.47 90 188.47 90"/>
    </g>
    <g id="f4bf3a">
      <polygon class="cls-2" points="89.46 156.01 89.46 145 78.45 145 78.45 134 78.45 123 78.45 112 78.45 101 78.45 90 89.46 90 89.46 79 100.46 79 100.46 67.99 111.46 67.99 122.46 67.99 133.46 67.99 144.46 67.99 144.46 56.99 133.46 56.99 122.46 56.99 122.46 45.99 111.46 45.99 100.46 45.99 100.46 56.99 89.46 56.99 78.45 56.99 78.45 67.99 67.45 67.99 67.45 79 67.45 90 56.45 90 56.45 101 56.45 112 56.45 123 56.45 134 67.45 134 67.45 145 67.45 156.01 78.45 156.01 78.45 167.01 89.46 167.01 100.46 167.01 100.46 156.01 89.46 156.01"/>
      <polygon class="cls-2" points="177.47 90 177.47 79 166.47 79 166.47 67.99 155.47 67.99 144.46 67.99 144.46 79 155.47 79 155.47 90 166.47 90 166.47 101 166.47 112 166.47 123 166.47 134 155.47 134 155.47 145 144.46 145 144.46 156.01 133.46 156.01 122.46 156.01 122.46 167.01 111.46 167.01 100.46 167.01 100.46 178.01 111.46 178.01 122.46 178.01 133.46 178.01 144.46 178.01 144.46 167.01 155.47 167.01 166.47 167.01 166.47 156.01 177.47 156.01 177.47 145 177.47 134 188.47 134 188.47 123 188.47 112 188.47 101 188.47 90 177.47 90"/>
    </g>
    <g id="f2ec8f">
      <rect class="cls-6" x="78.45" y="134" width="11" height="11"/>
      <rect class="cls-6" x="89.46" y="145" width="11" height="11"/>
      <polygon class="cls-6" points="100.46 156.01 100.46 167.01 111.46 167.01 122.46 167.01 122.46 156.01 111.46 156.01 100.46 156.01"/>
      <polygon class="cls-6" points="133.46 45.99 122.46 45.99 122.46 56.99 133.46 56.99 144.46 56.99 144.46 45.99 133.46 45.99"/>
      <polygon class="cls-6" points="155.47 56.99 144.46 56.99 144.46 67.99 155.47 67.99 166.47 67.99 166.47 56.99 155.47 56.99"/>
      <rect class="cls-6" x="166.47" y="67.99" width="11" height="11"/>
    </g>
    <polygon id="ce8835" class="cls-7" points="155.47 90 144.46 90 144.46 79 122.46 79 122.46 67.99 111.46 67.99 100.46 67.99 100.46 79 89.46 79 89.46 90 78.45 90 78.45 101 78.45 112 78.45 123 78.45 134 89.46 134 89.46 145 100.46 145 100.46 156.01 111.46 156.01 122.46 156.01 133.46 156.01 144.46 156.01 144.46 145 155.47 145 155.47 134 166.47 134 166.47 123 166.47 112 166.47 101 166.47 90 155.47 90"/>
    <g id="ae774a">
      <polygon class="cls-8" points="133.46 67.99 122.46 67.99 122.46 79 144.46 79 144.46 67.99 133.46 67.99"/>
      <rect class="cls-8" x="144.46" y="79" width="11" height="11"/>
    </g>
    <g id="_1up" data-name="1up">
      <g id="_806cad" data-name="806cad">
        <polygon class="cls-1" points="126.59 107.87 126.59 112 126.59 116.13 126.59 120.25 126.59 124.38 130.71 124.38 130.71 120.25 130.71 116.13 130.71 112 130.71 107.87 130.71 103.75 126.59 103.75 126.59 107.87"/>
        <polygon class="cls-1" points="143.09 112 143.09 107.87 147.21 107.87 147.21 103.75 143.09 103.75 138.96 103.75 134.84 103.75 134.84 107.87 134.84 112 134.84 116.13 134.84 120.25 134.84 124.38 134.84 128.5 138.96 128.5 143.09 128.5 143.09 124.38 143.09 120.25 147.21 120.25 147.21 116.13 143.09 116.13 143.09 112"/>
        <polygon class="cls-1" points="122.46 120.25 122.46 116.13 122.46 112 122.46 107.87 122.46 103.75 118.34 103.75 114.21 103.75 114.21 107.87 114.21 112 114.21 116.13 114.21 120.25 114.21 124.38 118.34 124.38 118.34 128.5 122.46 128.5 126.59 128.5 126.59 124.38 122.46 124.38 122.46 120.25"/>
        <polygon class="cls-1" points="101.83 95.5 97.71 95.5 93.58 95.5 93.58 99.62 97.71 99.62 97.71 103.75 97.71 107.87 97.71 112 97.71 116.13 97.71 120.25 97.71 124.38 97.71 128.5 101.83 128.5 105.96 128.5 110.08 128.5 110.08 124.38 110.08 120.25 110.08 116.13 110.08 112 110.08 107.87 110.08 103.75 110.08 99.62 110.08 95.5 105.96 95.5 101.83 95.5"/>
        <polygon class="cls-1" points="147.21 107.87 147.21 112 147.21 116.13 151.34 116.13 151.34 112 151.34 107.87 147.21 107.87"/>
      </g>
      <g id="_46266c" data-name="46266c">
        <polygon class="cls-5" points="147.21 107.87 143.09 107.87 143.09 112 143.09 116.13 147.21 116.13 147.21 112 147.21 107.87"/>
        <path class="cls-5" d="M151.34,103.75v-4.13h-37.13v-8.25h-24.75v12.38h4.13v28.88h53.63v-8.25h4.13v-4.13h4.13v-16.5h-4.13ZM110.08,99.62v28.88h-12.38v-28.88h-4.13v-4.13h16.5v4.13ZM130.71,107.87v16.5h-4.13v4.13h-8.25v-4.13h-4.13v-20.63h8.25v20.63h4.13v-20.63h4.13v4.13ZM151.34,112v4.13h-4.13v4.13h-4.13v8.25h-8.25v-24.75h12.38v4.13h4.13v4.13Z"/>
      </g>
    </g>
  </g>
</svg>