<?xml version="1.0" encoding="UTF-8"?>
<svg id="text_hell" xmlns="http://www.w3.org/2000/svg" viewBox="0 0 1000 224">
  <defs>
    <style>
      .cls-1 {
        fill: #1d1d1b;
      }
    </style>
  </defs>
  <g>
    <path class="cls-1" d="M548.52,136.91h10.16v10.16h-50.78V55.66h20.31v81.25h20.31Z"/>
    <path class="cls-1" d="M599.3,147.06h-20.31v-10.16h-10.16v-50.78h10.16v-10.16h30.47v10.16h10.16v30.47h-30.47v20.31h10.16v-10.16h20.31v10.16h-10.16v10.16h-10.16ZM599.3,106.44v-20.31h-10.16v20.31h10.16Z"/>
    <path class="cls-1" d="M650.08,147.06v-10.16h-10.16v-10.16h-10.16v-50.78h20.31v50.78h10.16v-50.78h20.31v50.78h-10.16v10.16h-10.16v10.16h-10.16Z"/>
    <path class="cls-1" d="M721.17,147.06h-20.31v-10.16h-10.16v-50.78h10.16v-10.16h30.47v10.16h10.16v30.47h-30.47v20.31h10.16v-10.16h20.31v10.16h-10.16v10.16h-10.16ZM721.17,106.44v-20.31h-10.16v20.31h10.16Z"/>
    <path class="cls-1" d="M761.8,147.06h-10.16V55.66h20.31v91.41h-10.16Z"/>
    <path class="cls-1" d="M843.05,147.06h-20.31v-10.16h-10.16V55.66h20.31v81.25h10.16V55.66h20.31v81.25h-10.16v10.16h-10.16Z"/>
    <path class="cls-1" d="M883.67,167.38h-10.16v-91.41h40.62v10.16h10.16v50.78h-10.16v10.16h-20.31v20.31h-10.16ZM903.98,136.91v-50.78h-10.16v50.78h10.16Z"/>
    <path class="cls-1" d="M944.61,116.6h-10.16v-60.94h20.31v60.94h-10.16ZM944.61,147.06h-10.16v-20.31h20.31v20.31h-10.16Z"/>
  </g>
  <g>
    <path class="cls-1" d="M118.93,144.07v3.91c-6.23-.72-8.83-.87-13.32-.87s-8.25.29-15.35.87v-3.91c7.82-.87,9.27-1.45,6.23-11.87l-3.91-13.46h-27.22l-3.62,13.46c-2.75,10.28-1.59,11,6.37,11.87v3.91c-3.91-.43-8.83-.87-12.31-.87s-6.81.29-10.57.87v-3.91c6.8-.87,8.54-2.32,11.15-11.87l22.88-82.67h3.62l25.05,82.82c3.19,10.42,4.49,10.86,11,11.73ZM91.13,113.81l-8.69-30.26c-1.3-5.07-2.46-9.41-3.19-13.9h-.58l-12.02,44.16h24.47Z"/>
    <path class="cls-1" d="M124.87,54.59v-3.91c8.83.72,10.13.87,14.91.87s6.08-.14,14.91-.87v3.91c-7.96.87-9.41,1.74-9.41,12.45v64.57c0,10.71,1.45,11.58,9.41,12.45v3.91c-8.83-.72-10.13-.87-14.91-.87s-6.08.14-14.91.87v-3.91c7.96-.87,9.41-1.74,9.41-12.45v-64.57c0-10.71-1.45-11.58-9.41-12.45Z"/>
    <path class="cls-1" d="M256.47,120.76c0,16.51-12.89,26.93-28.81,26.93h-31.85v-3.91c7.96-.43,9.41-1.59,9.41-11.58v-65.73c0-9.99-1.45-11.15-9.41-11.58v-3.91h28.81c16.22,0,27.51,8.83,27.51,22.59,0,10.86-6.81,18.82-16.36,22.59v.43c12.16,2.17,20.7,10.86,20.7,24.18ZM216.22,56.04v39.09h6.66c12.16,0,17.52-7.38,17.52-19.55s-5.65-19.55-18.68-19.55h-5.5ZM244.75,121.48c0-13.03-7.38-21.28-18.68-21.28h-9.85v36.63c0,4.05.87,5.79,7.38,5.79h3.76c12.02,0,17.37-7.96,17.37-21.14Z"/>
    <path class="cls-1" d="M323.95,76.46v3.76c-5.79,1.16-6.23,2.03-8.54,8.69l-25.34,70.94c-4.34,11.58-7.96,14.62-14.77,14.62-7.38,0-12.16-4.34-12.16-9.7,0-3.76,1.88-6.37,5.65-6.37,3.19,0,5.65,1.74,5.94,6.66.14,3.33,2.03,4.2,3.62,4.2,1.88,0,4.49-1.59,7.24-9.41l6.81-19.26-18.68-51.69c-2.75-7.82-6.08-8.4-9.41-8.69v-3.76c5.36.72,9.12.87,12.16.87,2.75,0,6.66,0,13.32-.87v3.76c-6.81.72-7.67,1.88-5.36,8.4l8.69,24.9c2.32,6.52,3.19,10.28,3.76,13.03h.43l13.18-37.64c2.32-6.66.72-7.53-5.94-8.69v-3.76c4.78.72,7.24.87,10.42.87,2.46,0,5.21-.15,8.98-.87Z"/>
    <path class="cls-1" d="M365.36,140.31v5.36c-3.91,2.32-8.25,3.47-13.03,3.47-9.12,0-14.19-5.21-14.19-16.65v-50.39h-10.28v-4.49c11-1.59,15.06-7.82,16.36-21.14h4.05v20.27h16.36v5.36h-16.36v47.63c0,10.42,3.19,13.03,8.69,13.03,3.19,0,5.79-.87,8.4-2.46Z"/>
    <path class="cls-1" d="M419.07,111.06h-34.46c.14,20.7,5.94,31.71,16.36,31.71,6.23,0,11.44-3.33,15.2-10.57l2.9,1.74c-2.9,7.82-10.42,15.2-20.27,15.2-14.62,0-25.34-11.73-25.34-36.92,0-23.74,10.42-36.92,24.18-36.92,12.02,0,21.57,10.13,21.57,32.14,0,1.16,0,1.88-.14,3.62ZM384.61,106.57h24.03c-.43-19.55-4.2-26.78-11-26.78-7.96,0-12.45,9.99-13.03,26.78Z"/>
    <path class="cls-1" d="M468.73,80.65v15.64h-3.19c-1.45-9.85-5.94-16.51-14.19-16.51-6.95,0-11,4.2-11,11.73,0,6.08,3.48,9.56,9.85,13.03l9.12,4.92c7.82,4.2,12.74,10.13,12.74,19.4,0,10.86-8.98,20.27-21.14,20.27-6.66,0-13.75-2.17-18.82-5.65v-17.08h3.19c2.17,11.73,7.09,18.24,15.93,18.24,7.96,0,12.6-4.78,12.6-12.02s-4.34-10.42-10.71-13.9l-8.11-4.49c-8.4-4.63-12.31-9.56-12.31-19.98,0-12.02,9.27-18.97,19.26-18.97,5.5,0,12.02,1.88,16.8,5.36Z"/>
  </g>
</svg>